<svg width="41" height="41" viewBox="0 0 41 41" fill="none" xmlns="http://www.w3.org/2000/svg">
<path fill-rule="evenodd" clip-rule="evenodd" d="M0 20.2264C0 9.05568 9.05568 0 20.2264 0C31.3972 0 40.4528 9.05568 40.4528 20.2264C40.4528 31.3972 31.3972 40.4528 20.2264 40.4528C9.05568 40.4528 0 31.3972 0 20.2264ZM20.2264 10.1132C25.7887 10.1132 30.3396 14.6642 30.3396 20.2264C30.3396 25.283 26.6736 29.5811 21.617 30.3396V23.134H24.0189L24.5245 20.2264H21.7434V18.3302C21.7434 17.5717 22.1226 16.8132 23.3868 16.8132H24.6509V14.2849C24.6509 14.2849 23.5132 14.0321 22.3755 14.0321C20.1 14.0321 18.583 15.4226 18.583 17.9509V20.2264H16.0547V23.134H18.583V30.2132C13.7792 29.4547 10.1132 25.283 10.1132 20.2264C10.1132 14.6642 14.6642 10.1132 20.2264 10.1132Z" fill="#919268"/>
</svg>
