<svg width="42" height="41" viewBox="0 0 42 41" fill="none" xmlns="http://www.w3.org/2000/svg">
<path d="M21 23.766C19.1038 23.766 17.4604 22.2491 17.4604 20.2264C17.4604 18.3302 18.9774 16.6868 21 16.6868C22.8962 16.6868 24.5396 18.2038 24.5396 20.2264C24.5396 22.1226 22.8962 23.766 21 23.766Z" fill="#919268"/>
<path fill-rule="evenodd" clip-rule="evenodd" d="M25.2981 11.6302H16.7019C15.6906 11.7566 15.1849 11.883 14.8057 12.0094C14.3 12.1358 13.9208 12.3887 13.5415 12.7679C13.2414 13.068 13.0996 13.3681 12.9283 13.7308C12.8831 13.8264 12.8357 13.9266 12.783 14.0321C12.7635 14.0907 12.7409 14.1524 12.7167 14.2186C12.5844 14.5799 12.4038 15.0734 12.4038 15.9283V24.5245C12.5302 25.5358 12.6566 26.0415 12.783 26.4208C12.9094 26.9264 13.1623 27.3057 13.5415 27.6849C13.8416 27.985 14.1417 28.1268 14.5044 28.2982C14.6001 28.3434 14.7001 28.3906 14.8057 28.4434C14.8643 28.4629 14.926 28.4855 14.9922 28.5097C15.3535 28.642 15.847 28.8226 16.7019 28.8226H25.2981C26.3094 28.6962 26.8151 28.5698 27.1943 28.4434C27.7 28.317 28.0793 28.0641 28.4585 27.6849C28.7586 27.3848 28.9004 27.0847 29.0717 26.722C29.1169 26.6263 29.1642 26.5263 29.217 26.4208C29.2365 26.3621 29.2591 26.3004 29.2833 26.2343C29.4156 25.873 29.5962 25.3794 29.5962 24.5245V15.9283C29.4698 14.917 29.3434 14.4113 29.217 14.0321C29.0906 13.5264 28.8377 13.1472 28.4585 12.7679C28.1584 12.4678 27.8583 12.326 27.4956 12.1547C27.4001 12.1095 27.2997 12.0621 27.1943 12.0094C27.1357 11.9899 27.074 11.9673 27.0079 11.9431C26.6465 11.8108 26.153 11.6302 25.2981 11.6302ZM21 14.7906C17.966 14.7906 15.5642 17.1924 15.5642 20.2264C15.5642 23.2604 17.966 25.6623 21 25.6623C24.034 25.6623 26.4359 23.2604 26.4359 20.2264C26.4359 17.1924 24.034 14.7906 21 14.7906ZM27.8264 14.6641C27.8264 15.3623 27.2604 15.9283 26.5623 15.9283C25.8641 15.9283 25.2981 15.3623 25.2981 14.6641C25.2981 13.966 25.8641 13.4 26.5623 13.4C27.2604 13.4 27.8264 13.966 27.8264 14.6641Z" fill="#919268"/>
<path fill-rule="evenodd" clip-rule="evenodd" d="M0.77359 20.2264C0.77359 9.05568 9.82927 0 21 0C32.1707 0 41.2264 9.05568 41.2264 20.2264C41.2264 31.3972 32.1707 40.4528 21 40.4528C9.82927 40.4528 0.77359 31.3972 0.77359 20.2264ZM16.7019 9.73396H25.2981C26.4359 9.86037 27.1943 9.98679 27.8264 10.2396C28.5849 10.6189 29.0906 10.8717 29.7226 11.5038C30.3547 12.1358 30.734 12.7679 30.9868 13.4C31.2396 14.0321 31.4925 14.7906 31.4925 15.9283V24.5245C31.366 25.6623 31.2396 26.4208 30.9868 27.0528C30.6076 27.8113 30.3547 28.317 29.7226 28.9491C29.0906 29.5811 28.4585 29.9604 27.8264 30.2132C27.1943 30.466 26.4359 30.7189 25.2981 30.7189H16.7019C15.5642 30.5924 14.8057 30.466 14.1736 30.2132C13.4151 29.834 12.9094 29.5811 12.2774 28.9491C11.6453 28.317 11.266 27.6849 11.0132 27.0528C10.7604 26.4208 10.5076 25.6623 10.5076 24.5245V15.9283C10.634 14.7906 10.7604 14.0321 11.0132 13.4C11.3925 12.6415 11.6453 12.1358 12.2774 11.5038C12.9094 10.8717 13.5415 10.4924 14.1736 10.2396C14.8057 9.98679 15.5642 9.73396 16.7019 9.73396Z" fill="#919268"/>
</svg>
