<svg width="124" height="65" viewBox="0 0 124 65" fill="none" xmlns="http://www.w3.org/2000/svg">
<g clip-path="url(#clip0_4022_2118)">
<path d="M77.3423 7.96659C77.2494 6.08512 76.3598 4.18741 74.95 2.93929C73.5587 1.70972 71.5519 1.02998 69.6984 1.14365C65.873 1.37565 62.7467 4.92515 62.979 8.74609C62.9859 8.86209 63.1067 9.1544 63.1206 9.26807C63.3018 9.24488 64.0195 9.47223 64.1356 9.52559C64.2634 9.41887 64.4376 9.32839 64.635 9.28431H64.6397C64.8371 9.23792 65.0136 9.2472 65.1414 9.29823C65.2621 9.18224 65.434 9.08016 65.6291 9.02216C65.6291 9.02216 65.6291 9.02216 65.6314 9.02216C65.6314 9.02216 65.6314 9.02216 65.6338 9.02216C65.8289 8.96416 66.0054 8.96184 66.1355 9.00824C66.2493 8.88065 66.3817 8.4677 66.3817 8.4677L66.6813 8.42594C66.8717 8.35402 66.9786 8.61153 67.1087 8.65097C67.2178 8.5141 67.0436 8.20322 67.2294 8.11971L67.4571 8.08723C67.4571 8.08723 67.6498 7.93411 67.838 7.90163C67.8333 7.88075 68.2212 7.37501 68.421 7.13141C68.4488 7.09661 68.4767 7.05949 68.4999 7.02006C68.4999 7.02006 68.4999 7.02006 68.4999 7.01774C68.4279 6.97134 68.4604 6.9899 68.4442 6.86926L68.4767 6.54911C68.4558 6.50967 68.4721 6.47023 68.4953 6.42847C68.5115 6.38207 68.5487 6.34263 68.6137 6.34263C68.6207 6.34263 68.6253 6.34495 68.6323 6.34727C68.6253 6.29856 68.6161 6.25912 68.6114 6.26376C68.6625 6.2104 68.8553 6.20576 68.9343 6.18952C69.5498 6.06888 70.1606 6.08048 70.7831 6.08744C71.3568 6.0944 71.9235 5.98768 72.4949 6.01088C72.8108 6.02248 73.1267 6.06424 73.4402 6.10832C73.5564 6.12456 73.6725 6.1408 73.7886 6.15936C73.9024 6.1756 74.144 6.26376 74.2532 6.23128C74.2717 6.23824 74.2857 6.24288 74.2973 6.2452C74.3019 6.29856 74.3066 6.35191 74.3112 6.40527C74.3159 6.47719 74.3205 6.54679 74.3252 6.61639C74.7711 6.8159 74.9407 7.33789 74.8292 7.781C74.8292 7.79027 74.8152 7.88771 74.8152 7.89699L74.5876 8.23802C74.5249 8.2589 74.4994 8.1661 74.4274 8.16842C74.3856 8.16842 74.439 8.2705 74.4134 8.24034C74.3414 8.31922 74.4436 8.35402 74.3414 8.40506C74.295 8.61385 74.1835 8.80177 74.0186 8.93632C73.993 9.01752 73.9605 9.0964 73.9164 9.17064C73.9187 9.26343 73.9094 9.35391 73.8815 9.43279C73.8676 9.46991 73.863 9.50471 73.8537 9.54183C73.8467 9.64158 73.8444 9.74366 73.8304 9.84342C73.8304 10.0221 73.784 10.1868 73.6957 10.3422C73.6446 10.4095 73.6562 10.5812 73.6051 10.6484C73.4704 10.7946 73.0733 10.6484 73.0361 10.8085C72.9873 10.9848 72.8921 11.1472 72.7527 11.2679C72.7899 11.305 72.6714 11.3096 72.7341 11.3259C72.7341 11.3375 72.6645 11.3839 72.6645 11.3978C72.6575 11.4442 72.7388 11.5115 72.5599 11.5323L72.4833 11.6391C72.4601 11.6483 72.3439 11.6228 72.3207 11.7782C72.2812 12.0381 72.1047 12.2005 71.8864 12.2863C71.3824 12.4789 70.6112 11.9221 70.3348 11.6414C70.1513 11.9082 69.6009 12.5345 69.508 12.7503C69.4871 12.8013 69.6566 13.0125 69.7124 13.0681C69.7681 13.1261 69.9307 13.1934 70.0027 13.2421C70.1258 13.3256 70.2559 13.4138 70.365 13.5043C70.3674 13.5089 70.5346 13.6597 70.5392 13.662C70.6716 13.792 71.0154 14.2536 71.1617 14.7478C71.2221 14.9264 71.3452 15.1839 71.3661 15.3417C72.9734 15.0262 74.6712 14.2072 75.7164 12.8941C76.7616 11.5811 77.4236 9.6439 77.34 7.96891" fill="#E0FF05"/>
<path d="M66.6608 8.55095C66.0639 8.54399 65.5041 8.7551 64.9978 9.05437C64.5217 9.33509 63.941 9.40468 63.4091 9.5346C63.1675 9.5926 63.0955 9.80371 63.142 9.99163C63.077 10.0589 63.0352 10.1494 63.0352 10.2561C63.0352 10.4579 63.2163 10.6621 63.4277 10.6482C63.7436 10.6273 64.0571 10.5693 64.3544 10.4556C64.6494 10.3419 64.9003 10.1842 65.165 10.0148C65.4066 9.86171 65.6783 9.79675 65.9455 9.697C66.259 9.57868 66.5656 9.4418 66.8606 9.28405C67.2113 9.09613 67.0394 8.55791 66.6632 8.55327" fill="#E0FF05"/>
<path d="M90.3283 38.137C90.1286 38.0628 89.9056 38.0373 89.6989 38.0976C87.4204 38.7588 86.5494 38.7634 84.4775 39.1392L85.0234 40.0254C86.2079 40.0254 89.3389 39.5011 89.3389 39.5011C89.3389 39.5011 91.9519 40.7794 92.0587 43.6631C92.0587 43.6631 90.4956 46.628 89.887 47.9086C89.2855 49.1776 88.6305 50.4953 88.5468 51.8594L88.4772 52.1471C88.2217 52.7689 87.7548 53.2862 87.0952 53.7038C86.6028 54.017 86.115 54.2467 85.4229 54.4346C85.9106 55.4577 87.216 56.838 88.9998 57.1535C90.0287 55.8869 90.254 54.7246 91.2737 53.4138C90.4259 52.8756 90.0008 52.0659 90.556 51.4836C90.9671 51.3815 91.4804 51.3491 92.0703 51.3723C93.1736 50.8132 93.7334 50.1334 93.6823 49.3191C92.5558 46.6071 92.7578 44.3684 93.7868 41.5079C93.8704 41.2736 93.8425 41.0137 93.7101 40.8026C92.9669 39.6102 91.7103 38.6497 90.326 38.137" fill="#919268"/>
<path d="M38.4516 49.6859C35.9919 50.4793 32.8214 50.9665 28.8334 51.2379C28.8474 52.319 28.5222 54.1471 27.9787 55.147C27.5745 55.2746 27.2981 54.9522 26.7988 54.9754C26.8475 55.5925 26.9195 55.8941 27.0705 56.6063L27.0612 57.0378C26.9312 57.5528 26.6826 58.0191 26.3458 58.4483V58.4529C26.0253 58.8589 25.6351 59.2255 25.1985 59.5665L24.3855 60.2022L23.273 59.8751C23.0337 59.8055 22.8572 59.7614 22.7457 59.7452C21.6053 61.1186 22.0118 63.5499 22.6551 64.9975C24.5435 64.4361 25.5236 64.0301 27.3098 63.3457C27.5769 62.0558 28.3178 60.7126 30.0621 61.1371C30.7217 60.5525 31.4139 60.0444 31.5347 59.3136C30.5499 56.0217 31.9179 52.8248 34.2359 51.8875C40.5396 51.2936 42.9715 49.4632 46.0629 47.4634C46.0629 47.4634 43.9563 47.0157 43.443 46.895C42.2096 47.8207 41.2783 48.7742 38.4516 49.6859Z" fill="#919268"/>
<path d="M75.0522 43.5866C75.5423 43.8789 75.9766 43.5008 76.5596 43.0205C76.9637 42.6865 77.4724 41.9905 77.1658 41.6448C77.0311 41.4917 76.5178 40.6032 76.0811 40.1206C76.0742 40.2088 75.756 40.6101 75.1265 40.9047C74.4762 41.2087 74.0906 41.3223 73.5959 41.1924C73.568 41.2203 74.4297 43.2131 75.0522 43.5843" fill="#919268"/>
<path d="M78.8039 41.4549C79.287 41.2089 79.8049 40.8702 79.6633 40.5895C79.3172 39.9075 78.8666 39.346 78.5321 38.998C78.4671 39.1581 78.2999 39.3321 77.8702 39.52C77.1896 39.817 76.5997 39.9167 76.3047 39.8471L77.4428 41.3783C77.6588 41.5291 77.7494 41.9954 78.8062 41.4572" fill="#919268"/>
<path d="M81.0469 40.6427C81.6972 40.485 82.0944 40.2553 81.8575 39.8586C81.7298 39.6405 81.1003 38.6499 80.8216 38.2485C80.7542 38.4086 80.5777 38.5548 80.2177 38.6661C79.651 38.8424 79.1005 38.8935 78.7358 38.7844L79.9274 40.5685C80.1294 40.7123 80.4105 40.7958 81.0446 40.6427" fill="#919268"/>
<path d="M83.3956 40.2559C83.9925 40.191 84.5848 40.1214 84.4779 39.7548L83.3793 38.0288C83.3143 38.2585 82.8776 38.3722 82.4735 38.393C81.8882 38.4232 81.3911 38.4603 81.1728 38.2074C81.131 38.2005 81.0892 38.1935 81.0474 38.1842L82.2528 40.0495C82.355 40.2559 82.8335 40.3186 83.3956 40.2559Z" fill="#919268"/>
<path d="M75.4165 37.344L76.4919 39.0213C76.7451 39.128 77.1864 39.193 77.8832 38.9285C78.5986 38.6547 78.8029 38.3323 78.4754 37.9796C78.4499 37.9518 78.0202 37.2442 77.839 36.9844C77.0819 37.054 76.2643 37.1677 75.4165 37.344Z" fill="#919268"/>
<path d="M72.3765 38.2555L73.9327 40.5522C74.2021 40.6612 74.5807 40.5893 75.2473 40.2599C76.2809 39.7472 76.4435 39.2298 76.2367 38.977C76.1601 38.8842 75.245 37.6801 75.0382 37.4272C74.1672 37.6268 73.2707 37.8959 72.3765 38.2531" fill="#919268"/>
<path d="M80.3227 38.1932C81.1635 37.9774 80.7129 37.2118 80.5945 36.8963C79.8953 36.8778 79.0267 36.887 78.0488 36.9659L78.748 38.0563C79.0081 38.3347 79.6491 38.3648 80.3227 38.1908" fill="#919268"/>
<path d="M32.8956 43.125C33.1999 42.9626 33.7341 42.0509 34.2102 41.109C34.0871 41.0858 33.9733 41.0603 33.8734 41.0371C33.7527 41.0092 33.6621 40.928 33.618 40.8097C33.5669 40.6775 33.5901 40.4756 33.6621 40.2344C33.3973 40.5893 33.1418 40.8677 32.9304 40.9652C32.7168 41.0626 32.4404 41.102 32.1477 41.102C31.7831 41.102 31.3905 41.0394 31.0537 40.9466C30.4731 41.9303 30.0201 42.8397 30.0294 43.1181C30.7797 43.2874 32.3219 43.4313 32.8956 43.125Z" fill="#919268"/>
<path d="M36.5498 43.3898C36.8494 43.2297 37.372 42.3412 37.8435 41.4155C37.6345 41.3714 37.4556 41.3134 37.3348 41.2462C37.1908 41.1673 37.1072 41.0699 37.084 40.9539C37.0584 40.8286 37.0747 40.6708 37.1188 40.4922C36.9214 40.7427 36.7286 40.933 36.5567 41.0095C36.1967 41.1696 35.774 41.2253 35.3559 41.2253C35.1399 41.2253 34.9286 41.209 34.7265 41.1859C34.2387 42.0373 33.7997 42.949 33.8323 43.3341C34.111 43.5684 35.9552 43.7076 36.5521 43.3875" fill="#919268"/>
<path d="M39.9632 43.9001C40.2094 43.8375 40.7273 43.0533 41.301 41.7681C41.0966 41.6382 40.9666 41.492 40.9248 41.3459C40.8806 41.1858 40.8992 40.9747 40.9596 40.7334C40.739 41.0327 40.5206 41.26 40.3185 41.3482C40.012 41.4781 39.5381 41.5338 39.0481 41.5338C38.8646 41.5338 38.6811 41.5268 38.5022 41.5106C37.7868 42.7007 37.5314 43.4408 37.5569 43.6751C37.7056 43.8607 39.0225 44.1367 39.9655 43.9024" fill="#919268"/>
<path d="M29.7483 40.2624C29.9876 40.1093 30.5891 39.1303 31.1326 38.1698C30.833 38.2069 30.5195 38.2278 30.2175 38.2278C29.8645 38.2278 29.53 38.1976 29.2606 38.1304C28.2827 39.1465 27.4512 40.0861 27.3374 40.3668C27.572 40.5872 29.2629 40.5686 29.7483 40.2624Z" fill="#919268"/>
<path d="M28.8892 43.0046C29.2283 42.8236 29.8578 41.7054 30.3688 40.6568C30.2782 40.5942 30.2085 40.5246 30.1667 40.4526C30.0947 40.5338 30.0273 40.5965 29.9693 40.6336C29.6627 40.8261 28.9217 40.9537 28.2528 40.9537C28.0461 40.9537 27.8487 40.9421 27.6698 40.9166C26.9475 41.8492 26.3459 42.7239 26.2832 43.0162C26.8058 43.2899 28.2714 43.3363 28.8869 43.0069" fill="#919268"/>
<path d="M43.2244 44.5894C43.4265 44.4827 43.7888 44.0233 44.1953 43.4364C44.3532 43.1557 44.5623 42.817 44.841 42.4063C44.9014 42.3159 44.9641 42.23 45.0245 42.1442C44.9641 42.0746 44.9455 42.0259 44.9362 41.998C44.8991 41.8867 44.8921 41.7452 44.9107 41.5874C44.7411 41.8287 44.56 41.9957 44.3672 42.0421C43.9166 42.1465 43.4915 42.1906 43.1013 42.1906C42.6229 42.1906 42.2025 42.1233 41.8587 42.0166C41.206 42.9399 40.6532 43.8633 40.6881 44.2066C40.8948 44.4711 42.6414 44.9026 43.2268 44.5917" fill="#919268"/>
<path d="M36.0922 37.9703C35.8785 38.0886 35.5371 38.1837 35.1492 38.2487C34.5081 39.2973 33.9786 40.3366 34.0064 40.6243C34.5035 40.738 35.6462 40.9421 36.3848 40.6127C36.7309 40.455 37.3255 39.4736 37.8202 38.5132C37.4114 38.4761 37.0375 38.3925 36.8076 38.2835C36.6078 38.1884 36.4917 38.0654 36.4638 37.9193C36.4522 37.8682 36.4336 37.7801 36.4452 37.6177C36.3128 37.787 36.192 37.91 36.0875 37.9726" fill="#919268"/>
<path d="M39.527 38.2859L39.5154 38.2929C39.2947 38.4181 38.9835 38.49 38.6467 38.5179C38.0335 39.425 37.4505 40.4504 37.4924 40.8378C37.7316 41.0466 39.4341 41.2508 40.1564 40.9445C40.4932 40.7984 41.0042 39.9423 41.4479 39.0492C40.9578 38.9819 40.5141 38.845 40.2656 38.678C40.1007 38.5666 40.0055 38.4367 39.9823 38.2929C39.9683 38.2233 39.9428 38.0864 39.9985 37.7871C39.8127 38.0307 39.6501 38.207 39.5247 38.2882" fill="#919268"/>
<path d="M42.8859 39.0004C42.6699 39.0584 42.4284 39.0862 42.1775 39.0909C41.6665 39.9771 41.2415 40.8935 41.3321 41.2252C41.3925 41.4224 42.4888 42.0279 44.2726 41.6173C44.4839 41.5663 44.8625 40.9793 45.2365 39.8193C44.5792 39.7845 43.8545 39.5943 43.4759 39.3646C43.239 39.2231 43.1228 39.0584 43.1298 38.8798C43.1298 38.8682 43.1298 38.8543 43.1321 38.8403C43.0439 38.9238 42.9626 38.9772 42.8859 39.0004Z" fill="#919268"/>
<path d="M32.8008 38.0079C32.7196 37.9174 32.6801 37.7991 32.6801 37.646C32.5709 37.7527 32.471 37.8316 32.3828 37.8757C32.269 37.9267 32.1226 37.9754 31.9554 38.0195C31.2145 38.9614 30.5432 39.9567 30.5386 40.242C30.6779 40.4299 32.0831 40.88 32.7614 40.5714C33.1144 40.4067 33.7996 39.3256 34.3524 38.3304C34.2757 38.3327 34.1991 38.335 34.1248 38.335C33.5278 38.335 32.9913 38.2399 32.8032 38.0102" fill="#919268"/>
<path d="M40.4007 38.2165C40.4773 38.4438 41.8082 38.8382 42.7721 38.5807C42.8627 38.5529 43.0206 38.3835 43.2831 37.9079C43.4712 37.1748 43.7987 36.3837 44.0867 35.7666C44.3352 35.2331 44.5698 34.7899 44.7231 34.5139C44.7649 34.4373 44.8021 34.3724 44.8346 34.3144C43.9079 34.2656 42.9765 34.2285 42.066 34.2007C41.7153 34.7551 40.2566 37.4811 40.3983 38.2165" fill="#919268"/>
<path d="M34.7992 34.5415C34.3137 35.3534 33.8283 36.1445 33.3986 36.7547C33.0177 37.5434 33.1129 37.7105 33.1153 37.7128L33.1269 37.7267C33.3104 37.9634 35.1824 37.9773 35.8862 37.5898C36.1394 37.4344 36.648 36.5807 37.0986 35.7548C37.1381 35.6736 37.1776 35.5924 37.2217 35.5042C37.4424 35.0588 37.6607 34.669 37.7931 34.4371C37.8163 34.393 37.8372 34.3489 37.8558 34.3118C37.8767 34.27 37.8953 34.2329 37.9139 34.1981C36.9384 34.1958 35.9582 34.2051 34.9896 34.2259C34.9432 34.3002 34.8735 34.4185 34.8015 34.5415" fill="#919268"/>
<path d="M38.4258 34.1937C38.0937 34.704 36.7419 37.1562 36.8766 37.8174C37.0531 38.0424 38.665 38.2698 39.3038 37.9148C39.5523 37.7478 40.0726 36.9637 40.5766 36.1447C40.6254 36.038 40.6765 35.9243 40.7322 35.806C41.0388 35.1611 41.3709 34.5463 41.5823 34.1821C40.5301 34.1728 39.4687 34.1751 38.4235 34.1937" fill="#919268"/>
<path d="M54.0367 45.0827C53.7324 44.925 53.5141 44.7788 53.2284 44.2337C53.0867 43.9622 53.0704 43.6606 53.1796 43.366C53.4816 42.5517 54.6917 41.9972 55.2003 41.7954C56.3407 41.343 57.2234 40.2016 57.7622 39.3247C59.2092 36.9769 60.5378 34.9121 62.8303 33.8798L60.2149 32.8474C59.5553 33.033 58.9421 33.1699 58.3777 33.2557C57.9457 33.3207 57.5509 33.3531 57.2071 33.3531C56.9075 33.3531 56.7356 33.3276 56.6752 33.316L56.5428 33.2928L56.429 33.2719L56.3338 33.2047L56.2246 33.1281C56.1155 33.0516 55.7183 32.743 55.119 31.9217C54.3642 30.8871 53.5814 29.4533 52.7917 27.6623C52.7313 27.5255 52.6733 27.3863 52.6198 27.2471C51.6815 27.138 50.6827 27.0267 49.5702 26.9362C44.8529 26.5557 38.4005 28.4975 34.7237 31.4021C32.8284 30.5321 29.0866 29.3281 24.9105 30.7896C24.7038 30.8569 24.4947 30.9311 24.2834 31.0123C24.0093 31.1144 23.863 31.184 23.863 31.184C23.0175 31.5482 22.1628 32.0308 21.3382 32.6688C21.3382 32.6688 21.3336 32.6711 21.3312 32.6734C20.1931 33.5527 19.3779 34.8425 18.2444 36.2809C15.0322 40.357 10.6633 41.7861 9.26966 41.9184C10.9071 42.3383 15.441 42.1828 17.4152 40.3942C17.4152 40.3942 15.7824 42.6909 13.0486 43.0458C13.0486 43.0458 13.5852 43.6537 14.786 43.2639C14.786 43.2639 11.5877 45.6952 8.32666 46.4306C8.32666 46.4306 16.6279 46.8853 20.4579 42.8904L18.997 45.5792C18.997 45.5792 24.1579 42.7466 24.7247 38.2181L25.454 39.6518C25.454 39.6518 25.965 32.4066 33.063 32.9564C32.7982 33.2325 32.5311 33.5248 32.3337 33.8334C43.9865 33.3276 50.6851 34.1883 51.563 34.2463L51.8603 34.2556C51.8859 34.0306 51.9091 33.8055 51.9254 33.5782C47.5495 32.7244 39.0927 33.0585 39.0927 33.0585C39.0927 33.0585 39.7035 32.7824 44.7692 32.627C49.4842 32.4808 51.6722 33.033 51.9556 33.0956C51.9649 32.8799 51.9765 32.4855 51.9788 32.2674C49.2659 31.7315 43.9749 31.938 43.9749 31.938C43.9749 31.938 44.4441 31.7106 47.5936 31.6132C50.555 31.5227 51.8208 31.7756 51.9765 31.8081C51.9765 31.655 51.9439 31.0193 51.937 30.8662C52.0136 30.7803 52.3736 32.2976 52.2691 34.0909C52.067 36.4479 51.7233 40.1158 48.4274 45.2196L47.8003 45.1013C47.6424 45.3403 47.4751 45.5398 47.3033 45.6743C47.1384 45.8042 46.8898 45.853 46.6065 45.853C45.9724 45.853 45.1595 45.6024 44.6996 45.4168C43.8146 45.0572 43.7751 44.8206 43.7612 44.7301C43.7612 44.7162 43.7566 44.7 43.7566 44.6837C43.6311 44.816 43.5173 44.9134 43.4198 44.9668C43.22 45.0735 42.9297 45.1175 42.6068 45.1175C41.9309 45.1175 41.1087 44.9227 40.6674 44.6953C40.4235 44.57 40.2981 44.4424 40.2726 44.287C40.2679 44.2638 40.2679 44.2383 40.2656 44.2128C40.1982 44.2592 40.1309 44.2963 40.0635 44.3125C39.7941 44.3798 39.4643 44.4123 39.1228 44.4123C38.426 44.4123 37.6921 44.2801 37.3623 44.0573C37.2345 43.9715 37.1602 43.8671 37.1393 43.7511C37.13 43.6931 37.1114 43.5864 37.1556 43.3776C37.0092 43.5609 36.8675 43.7001 36.7421 43.7673C36.4425 43.9274 35.892 43.9993 35.3276 43.9993C34.675 43.9993 34.006 43.9042 33.6808 43.7372C33.5252 43.6583 33.437 43.5539 33.4161 43.431C33.4068 43.3706 33.4045 43.301 33.4114 43.2245C33.2976 43.3521 33.1908 43.4495 33.0909 43.5029C32.768 43.6745 32.2826 43.7325 31.7809 43.7325C30.9819 43.7325 30.1481 43.5841 29.8833 43.5214C29.7695 43.4936 29.6835 43.417 29.6417 43.3057C29.593 43.1781 29.6185 42.9762 29.6928 42.728C29.4745 43.0435 29.2631 43.2871 29.0843 43.3822C28.7336 43.5701 28.1552 43.6606 27.5792 43.6606C27.0032 43.6606 26.4829 43.5771 26.1368 43.4124C25.8256 43.9413 25.4679 44.4517 25.0359 44.8322C32.1874 44.236 41.1203 45.7091 47.9977 47.4537C51.1984 44.3404 54.5825 37.6729 53.0519 31.0448C52.7476 29.7224 52.9543 30.1238 52.9148 30.0055C54.8124 35.6893 53.0101 42.5053 50.2902 45.8089C50.2902 45.8089 51.5421 46.9085 55.7252 46.7485C55.3861 46.3193 55.0447 45.904 54.7195 45.5862C54.3851 45.2567 54.2016 45.1616 54.039 45.0758M15.2366 44.6443C18.6857 43.2059 20.7854 39.6611 20.7854 39.6611C19.7681 43.6212 15.2366 44.6443 15.2366 44.6443ZM20.3604 35.5571C17.903 40.0554 15.4201 40.473 15.4201 40.473C17.1969 39.6379 18.3025 38.1879 20.214 35.0281C22.1256 31.8684 25.735 31.0518 25.735 31.0518C25.4377 31.1167 22.1581 32.2628 20.3604 35.5571ZM22.4345 37.0094C24.9174 30.7873 29.8577 31.6318 29.8577 31.6318C25.0638 32.4461 22.4345 37.0094 22.4345 37.0094Z" fill="#919268"/>
<path d="M30.3476 35.7228C29.1305 36.9732 29.0399 37.2957 29.0376 37.3653L29.0492 37.5787C29.3999 37.9059 31.4044 37.8432 32.2034 37.479C32.6888 37.24 34.0034 35.0361 34.4355 34.3146C34.4517 34.2868 34.468 34.2589 34.4842 34.2334C33.7015 34.2404 32.798 34.2589 32.0153 34.2821C31.8248 34.4283 31.0397 35.0106 30.3476 35.7205" fill="#919268"/>
<path d="M48.0438 43.3037C48.0212 43.306 48.0302 43.3083 48.0415 43.3105C48.0415 43.3105 48.0415 43.306 48.0438 43.3037Z" fill="#919268"/>
<path d="M48.4927 42.8446C48.9316 42.673 49.3126 41.7195 49.575 40.7381C49.5681 40.7381 49.3567 40.7381 49.3474 40.7381C48.6204 40.7381 47.4521 40.3786 46.9249 40.0097C46.7112 39.8589 46.5997 39.7081 46.5834 39.5457C46.5765 39.4993 46.5765 39.4459 46.5765 39.3926C46.4975 39.497 46.4278 39.5759 46.3674 39.6199L46.3512 39.6315C46.2745 39.6802 46.1839 39.7151 46.0841 39.7452C45.6056 40.6407 45.2316 41.5223 45.3338 41.8447C45.5173 42.1371 47.8609 43.0859 48.4927 42.8446Z" fill="#919268"/>
<path d="M43.5542 38.88C43.5844 38.9264 43.7447 39.0609 44.1836 39.1955C44.9362 39.4275 45.8025 39.4576 46.1254 39.2651C46.2973 39.1259 46.6224 38.5552 46.9801 37.8615C47.4447 36.6343 48.1902 35.175 48.5549 34.5208C47.4679 34.4466 46.3832 34.3839 45.3194 34.3398C45.0175 34.841 43.6053 37.4138 43.5542 38.8823" fill="#919268"/>
<path d="M46.058 45.3728C46.7711 45.5004 46.8291 45.3775 46.8802 45.338C47.296 45.0109 47.7071 44.1665 48.0369 43.3151C47.354 43.3151 46.3599 42.9276 45.849 42.6817C45.6399 42.5796 45.4797 42.4915 45.3566 42.4126C44.7039 43.3499 44.1441 44.2964 44.1766 44.649C44.3021 44.8068 45.1661 45.2151 46.0603 45.3752" fill="#919268"/>
<path d="M51.6234 34.6945C50.8569 34.6458 49.7722 34.5831 49.0173 34.5483C48.6271 35.1747 46.8875 38.6314 47.0036 39.4944C47.1081 39.8169 49.1497 40.4549 49.742 40.2786C49.9511 40.2113 50.8662 39.6197 51.6234 34.6945Z" fill="#919268"/>
<path d="M117.585 41.5708L114.48 41.311C114.519 41.1022 114.41 40.891 114.208 40.8168C113.983 40.7333 113.732 40.8539 113.646 41.0836L113.532 41.3875L111.098 39.9886L110.901 40.5175L106.636 38.8101L106.483 40.1904L110.471 41.6775L110.262 42.2389L113.005 42.805L112.882 43.1367C112.796 43.3664 112.91 43.6216 113.133 43.7051C113.332 43.7794 113.555 43.6912 113.66 43.5079L116.182 45.3337L123.998 46.09L117.583 41.5685L117.585 41.5708ZM113.881 42.9465L114.257 41.9304C115.167 42.5196 117.894 43.8768 117.894 43.8768C117.894 43.8768 114.954 43.0996 113.881 42.9442" fill="#919268"/>
<path d="M98.2466 35.4233L98.0679 36.8199L99.0685 37.2213L98.9501 35.7319L98.2466 35.4233Z" fill="#919268"/>
<path d="M99.5744 37.4225L99.7787 37.5037L100.468 36.3391L99.4072 35.9146L99.5744 37.4225Z" fill="#919268"/>
<path d="M103.038 38.8103L103.605 39.0354L104.292 37.8707L102.927 37.3232L103.038 38.8103Z" fill="#919268"/>
<path d="M100.469 36.3394L99.5747 37.4228L101.49 38.1907L101.246 36.6502L100.469 36.3394Z" fill="#919268"/>
<path d="M105.623 39.8448L105.983 39.9886L106.175 38.6245L105.314 38.2788L105.623 39.8448Z" fill="#919268"/>
<path d="M101.763 36.8564L101.923 38.3621L102.65 38.6544L102.423 37.1209L101.763 36.8564Z" fill="#919268"/>
<path d="M103.963 39.179L104.889 39.5502L104.71 38.0654L103.963 39.179Z" fill="#919268"/>
<path d="M87.0583 52.2054C87.2975 49.273 88.6748 46.5262 91.188 43.9673C90.9719 42.8375 90.3982 41.5871 89.0883 40.7496C88.482 40.6777 86.9561 40.4457 84.4313 41.0187C84.4313 41.0187 81.0426 40.8493 79.052 42.0418C76.0604 43.8351 75.6563 44.9835 75.6563 44.9835C75.6563 44.9835 70.6417 44.7144 69.1436 45.3454C70.1888 46.9577 72.0562 48.1896 74.6459 47.2709C80.4967 45.1969 79.0544 47.8068 85.4394 44.3501C85.2187 46.5494 84.3407 48.3938 82.7846 49.8716C82.1203 49.9087 81.5233 49.7509 81.0193 49.3357C80.3852 50.4585 80.3945 51.4886 80.9032 52.4421C80.2366 52.5488 79.8371 52.3632 79.6768 51.9154C78.8198 51.6324 77.9627 51.3494 77.1056 51.0664C75.8142 52.9362 76.007 55.0613 76.6481 56.3372C77.8164 56.0705 78.9173 55.864 80.0392 55.6389C80.0113 55.1982 80.0531 54.5787 80.3365 53.8642C80.3365 53.8642 80.5362 54.8339 80.88 55.465C81.1796 55.4023 81.4815 55.3374 81.7905 55.2654C82.2225 54.0127 82.9797 53.2448 84.566 53.7296C85.8691 53.4768 86.7215 52.978 87.0606 52.2031M88.856 44.139C89.2067 43.624 88.5424 42.9675 88.5424 42.9675C88.5424 42.9675 88.482 42.4988 89.0209 42.7563C89.0209 42.7563 89.7247 43.5057 89.655 43.8815C89.5853 44.2573 87.8735 46.3453 87.4276 47.2222C87.4276 47.2222 88.5076 44.654 88.8583 44.139" fill="#919268"/>
<path d="M23.9075 58.6757C24.616 58.1212 25.1548 57.5111 25.3337 56.7873C24.6276 53.4605 24.8273 50.8622 27.222 50.0316C34.3526 50.2752 39.5809 48.6281 42.1706 46.6747C40.0245 46.2664 37.372 45.9485 35.205 45.8001C32.4131 45.6098 30.3831 45.2526 27.5448 45.4289C26.3998 46.3406 24.2072 46.8603 22.7067 47.0621C22.4791 47.0923 22.3258 47.3103 22.3723 47.5354C22.73 49.266 22.6998 50.6974 21.7219 52.217C20.6488 52.4977 19.3528 52.4931 17.5109 51.7925C17.7989 52.5325 18.5236 53.1195 19.88 53.486C19.4178 53.5997 18.937 53.5742 18.4377 53.4164C18.4261 54.2887 19.1763 55.0125 19.952 55.7294C18.8976 55.625 17.8361 55.56 16.7259 55.6807C15.5901 57.4833 15.2394 59.2395 15.9919 61.3622C17.8361 60.7613 18.9254 60.4064 20.7696 59.8032C21.1436 58.5296 22.205 58.1723 23.9099 58.6757M28.446 48.6629C30.0301 48.932 35.7206 47.5516 35.7206 47.5516C32.9264 48.9343 28.4925 49.1083 28.4925 49.1083C28.4925 49.1083 26.862 48.3937 28.446 48.6629ZM17.7246 56.836C17.0116 57.8985 17.5783 59.9122 17.5783 59.9122L17.1021 60.0978C16.6376 58.9054 17.0487 57.8591 17.3251 57.184C17.5109 56.7246 18.44 55.7758 17.7269 56.8383" fill="#919268"/>
<path d="M63.5021 39.5061L63.7783 39.2927L63.0122 38.6152L63.2862 39.6754L63.5021 39.5061Z" fill="#919268"/>
<path d="M63.0343 39.8705L62.6396 38.5319L61.4463 37.9937L62.1985 40.5201L63.0343 39.8705Z" fill="#919268"/>
<path d="M61.5298 41.0417L61.7923 40.8376L61.5136 39.6799L59.4998 37.7451C59.4116 37.8565 59.3256 37.9725 59.2374 38.0908C59.2234 38.1093 59.2072 38.1302 59.1932 38.1511C59.1073 38.2694 59.0214 38.3877 58.9331 38.5107L61.4857 41.0765L61.5275 41.0441L61.5298 41.0417Z" fill="#919268"/>
<path d="M61.2793 35.813L62.0547 36.2375L61.8249 35.3467C61.6461 35.4905 61.4627 35.646 61.2793 35.813Z" fill="#919268"/>
<path d="M66.0891 37.4951L63.3438 34.8457L64.6421 37.6528L65.3714 38.0519L66.0891 37.4951Z" fill="#919268"/>
<path d="M57.6951 44.3361C57.6881 44.3175 57.6835 44.299 57.6812 44.2804C57.6812 44.2758 57.6812 44.2711 57.6812 44.2642C57.6812 44.2503 57.6812 44.2363 57.6812 44.2201C57.6812 44.2155 57.6812 44.2108 57.6812 44.2085C57.6835 44.1899 57.6881 44.1714 57.6928 44.1551C57.6928 44.1505 57.6951 44.1482 57.6974 44.1435C57.7021 44.1296 57.709 44.1134 57.716 44.0995C57.7183 44.0948 57.7206 44.0902 57.723 44.0855C57.7323 44.0693 57.7415 44.0507 57.7508 44.0345C57.7625 44.0159 57.7741 43.9997 57.788 43.9811C57.7903 43.9788 57.7926 43.9742 57.7973 43.9719C57.8089 43.9579 57.8228 43.9417 57.8345 43.9278C57.8368 43.9278 57.8391 43.9232 57.8414 43.9208C57.8577 43.9046 57.8739 43.8884 57.8902 43.8721L56.3619 43.248L54.9497 45.0854C54.9706 45.1063 54.9938 45.1249 55.0171 45.1481C55.0403 45.1713 55.0635 45.1922 55.0891 45.2177C56.2341 46.3452 57.4419 48.4122 58.4871 48.9435C58.5591 48.9806 58.6335 49.0015 58.7031 49.0015C58.954 49.0015 59.1444 48.7138 58.9354 47.7835C58.731 46.8764 57.9854 45.1272 57.6951 44.3338" fill="#919268"/>
<path d="M59.9853 37.1489C59.8924 37.258 59.7995 37.367 59.709 37.483L61.3666 39.0768L61.0509 37.766L59.9853 37.1489Z" fill="#919268"/>
<path d="M58.0011 39.9327C58.0011 39.9327 58.0012 39.935 57.9988 39.935C57.8665 40.1322 57.7249 40.3317 57.5693 40.5266L58.7557 41.1042L58.1288 39.7378C58.087 39.8028 58.0453 39.8677 58.0011 39.9327Z" fill="#919268"/>
<path d="M58.2688 43.5778L58.3687 43.5012L56.413 41.6963C56.1436 41.9051 55.8555 42.0814 55.5513 42.2183L58.2084 43.6218L58.2665 43.5754L58.2688 43.5778Z" fill="#919268"/>
<path d="M62.8666 34.6016C62.8666 34.6016 62.8503 34.6108 62.8434 34.6155C62.7923 34.648 62.7412 34.6804 62.6901 34.7129C62.6855 34.7176 62.6785 34.7199 62.6739 34.7245C62.4882 34.8475 62.3001 34.9797 62.1074 35.1259L62.451 36.4552L64.1551 37.3878L62.8666 34.6016Z" fill="#919268"/>
<path d="M64.907 38.4135L61.0212 36.0518C60.7169 36.3417 60.4104 36.6619 60.0991 37.0145L64.3078 38.8774L64.9047 38.4135H64.907Z" fill="#919268"/>
<path d="M61.2109 41.2881L60.1895 40.4019L60.7141 41.6755L61.2109 41.2881Z" fill="#919268"/>
<path d="M53.8535 44.2553C53.8535 44.2553 53.8535 44.26 53.8581 44.26C53.8697 44.2785 53.8837 44.2948 53.8953 44.311C53.8953 44.311 53.8953 44.3133 53.8976 44.3157C53.9371 44.3667 53.9765 44.4085 54.0137 44.4433C54.0137 44.4433 54.016 44.4456 54.0183 44.4479C54.0299 44.4595 54.0415 44.4688 54.0531 44.4781C54.0531 44.4781 54.0531 44.4781 54.0555 44.4781C54.081 44.4989 54.1065 44.5152 54.1344 44.5337C54.1344 44.5337 54.139 44.5361 54.1414 44.5384C54.153 44.5453 54.1622 44.5523 54.1739 44.5569C54.1762 44.5569 54.1808 44.5616 54.1831 44.5639C54.1924 44.5685 54.204 44.5755 54.2133 44.5801C54.218 44.5825 54.2226 44.5848 54.2272 44.5871C54.2272 44.5871 54.2319 44.5871 54.2342 44.5894C54.3062 44.6289 54.3851 44.6683 54.4803 44.724L55.72 43.4062L53.7676 44.1138C53.7978 44.1672 53.8256 44.2113 53.8535 44.253" fill="#919268"/>
<path d="M60.5035 41.8397L59.6418 39.9235L58.5919 39.0117C58.506 39.1416 58.4224 39.2716 58.3364 39.4061L59.219 41.3293L60.3502 41.958L60.5011 41.8397H60.5035Z" fill="#919268"/>
<path d="M59.9692 42.2552L57.4445 40.8354L56.8267 41.3853L59.5024 42.6195L59.9692 42.2552Z" fill="#919268"/>
<path d="M58.8457 43.1275L59.2055 42.8468L57.0859 41.8701L58.6298 43.2969L58.8457 43.1275Z" fill="#919268"/>
<path d="M54.891 42.5151C54.8144 42.5546 54.7378 42.594 54.6635 42.6358C54.6588 42.6358 54.6565 42.6404 54.6519 42.6427C54.5404 42.7054 54.4359 42.7727 54.3338 42.8399C54.3315 42.8399 54.3268 42.8446 54.3245 42.8469C54.2247 42.9165 54.1318 42.9884 54.0459 43.0626L54.0413 43.0673C53.9577 43.1415 53.8834 43.2181 53.8207 43.297C53.8207 43.297 53.8207 43.2993 53.8184 43.3016C53.7836 43.3457 53.7534 43.3921 53.7279 43.4385C53.7093 43.4733 53.693 43.5057 53.6791 43.5405C53.6791 43.5405 53.6791 43.5429 53.6791 43.5452C53.6582 43.5985 53.6443 43.6519 53.6396 43.7076L55.6733 42.8701L54.891 42.5175V42.5151Z" fill="#919268"/>
<path d="M67.5853 36.3787C68.9534 35.5923 68.4865 34.9381 68.7072 34.4532C68.9371 33.9498 68.4354 32.871 68.4354 32.871L66.1848 29.9595C65.265 30.7923 64.0363 31.5092 63.1282 31.8293C62.3686 32.0961 61.6788 32.3931 61.0122 32.6088C61.0122 32.6088 61.8507 33.625 64.5682 32.2817C65.0838 32.0265 64.9979 32.3722 64.3801 32.7295C64.1013 32.8896 64.2291 33.0496 64.1687 33.0775L63.7506 33.27C63.588 33.3443 63.5904 33.5739 63.753 33.6459L64.1687 33.8314C64.1083 33.8616 63.5834 34.198 63.5207 34.2282C63.5044 34.2351 63.4905 34.2444 63.4742 34.2514C63.4255 34.2769 63.3744 34.3047 63.3256 34.3326C63.3163 34.3372 63.3093 34.3418 63.3 34.3465L66.6447 37.0585C66.7213 37.0214 67.5157 36.4159 67.583 36.3764" fill="#919268"/>
<path d="M75.1033 44.2411L73.5053 41.9026C70.3418 41.2414 67.5639 41.0419 64.3238 41.485C66.96 40.2462 70.7576 40.5663 73.0988 41.0141C73.6841 40.8238 72.4717 39.5989 72.3788 38.7359C72.3788 38.7359 72.193 38.3322 72.1906 38.3322L67.8171 37.8659L68.2723 37.5945H71.9212C71.9212 37.5945 76.0602 35.7687 82.2524 36.8753L82.3569 37.0261C82.3569 37.0261 81.7693 36.9403 80.7984 36.9032L81.1283 37.8566C81.3628 38.1861 81.7554 38.0214 82.4034 38.0353C83.0932 38.0492 83.5624 37.7615 83.4811 37.3834C83.4811 37.3834 83.876 37.33 83.9828 36.7848C84.2035 35.6759 83.7714 36.0401 83.8156 35.6017C83.8156 35.6017 75.8279 35.7641 68.2235 27.6675C68.205 27.693 68.1864 27.7208 68.1655 27.7464C67.6196 28.4887 67.2132 28.9829 66.6 29.542L68.6788 32.2842C68.6788 32.2842 69.5986 33.6274 69.2943 34.2955C69.2873 34.3211 69.2873 34.4069 69.2896 34.4695C69.3036 35.1423 69.3384 36.1121 67.5755 37.0052L58.4033 44.139L58.3894 44.1506L58.3754 44.1599C58.3081 44.204 58.2616 44.2458 58.2314 44.2759C58.3058 44.4731 58.401 44.7167 58.5102 44.9928C58.6774 45.4173 58.8632 45.8883 59.0281 46.343L60.8653 46.1063C61.1835 46.0437 61.511 45.9764 61.8478 45.9022C64.3424 45.3547 69.7728 43.8026 75.0986 44.2411" fill="#919268"/>
<path d="M17.5386 4.67712L16.7024 7.60488L16.3053 8.27766L17.7267 8.8066L17.7871 8.0271L19.1645 5.24782L19.2713 5.27102L30.211 9.65338C30.5711 9.31699 31.1726 8.95044 31.672 8.75325C30.0275 8.1199 19.6685 3.98809 19.6685 3.98809L19.6104 3.95561L20.3118 1.21577L20.8019 0.529067L19.3805 0.00244141L19.262 0.849219L18.1076 3.27123L14.0941 1.87231L13.4786 1.51272L13.0117 2.76781L13.7898 2.90468L17.5386 4.68176V4.67712Z" fill="#919268"/>
<path d="M30.3381 10.2401C29.3881 11.117 28.3708 12.2074 29.1187 11.9267C30.4472 11.4233 29.1512 12.5044 28.9933 12.9428C28.8794 13.2607 28.9212 13.3882 29.272 13.3882C30.5773 13.3882 31.9941 13.2119 32.9116 12.2051C33.1253 11.9708 33.3599 11.7365 33.6084 11.5021C36.0588 9.69491 40.3929 6.82978 41.0734 6.36812C40.7529 6.23124 39.1201 6.96202 38.8924 7.02234C35.8776 7.84128 36.7928 7.25665 37.0738 6.50731C37.176 6.23356 36.7719 6.43539 36.6046 6.50731C36.384 6.60243 32.821 8.18695 30.503 10.1148C30.4496 10.1589 30.3915 10.1983 30.3381 10.2401Z" fill="#919268"/>
<path d="M38.1318 8.70425C37.9901 8.62073 36.7103 9.71574 36.5849 9.8155C36.3805 9.97557 34.9567 11.2608 34.369 11.7944C33.5422 12.6806 32.9011 13.6898 32.5969 14.9124C32.497 15.3161 32.3437 16.4436 32.6224 16.0956C35.4142 12.6203 33.4725 15.9633 33.8395 15.8589C35.0751 15.0678 35.823 14.1816 36.5988 13.0448C36.8566 12.7061 37.0424 12.4625 37.0796 12.4324C39.1537 10.6878 37.5906 10.4836 37.6997 9.86886C37.8159 9.21231 38.3083 8.81096 38.1294 8.70657" fill="#919268"/>
<path d="M40.5659 10.2678C40.0967 10.5462 39.9969 10.8014 39.019 10.9939C38.8681 11.0241 37.8229 12.3928 37.3815 12.9589C37.3095 13.0772 37.2608 13.1584 37.2445 13.177C36.2643 14.3648 35.8114 15.6941 35.8532 17.1534C35.8625 17.448 36.1598 17.7449 36.341 17.4549C37.3258 15.8565 36.917 17.3691 37.0401 17.2972C37.8066 16.8448 38.3245 16.4829 38.5359 15.4273C38.659 14.8056 39.0004 14.2511 39.3976 13.7384C39.746 12.9844 40.6054 11.1633 40.6913 10.857C40.7517 10.6482 40.7564 10.1611 40.5682 10.2701" fill="#919268"/>
<path d="M42.045 5.35906C43.9868 5.03891 40.1358 6.34504 45.5708 5.07139C45.6382 5.05515 45.7497 5.04587 45.8194 5.05051L46.2421 5.07603C46.3002 5.08067 46.3118 5.16187 46.256 5.17811C45.2271 5.50986 42.93 5.96225 41.7919 6.49119C40.5771 7.05494 40.0057 7.42149 39.1208 8.4585C38.3706 9.33776 39.0999 8.78097 38.5076 9.76231C38.1546 10.3469 38.1174 11.0452 39.7572 10.0778C40.3983 9.69967 40.9813 9.60919 41.4644 9.02457C42.3098 7.99915 42.203 8.66729 42.8998 8.14763C44.665 6.8299 45.4524 6.84382 46.5417 6.50743H47.1967C44.593 7.49573 43.5478 8.47938 43.1924 8.65337C41.0695 9.68575 40.677 12.4674 40.1753 14.0379C40.094 14.3929 40.1056 14.7455 40.3611 14.9938C40.5167 15.1446 40.7954 14.8012 41.0811 14.3859C41.0811 14.3859 41.2251 14.2537 41.3064 14.0959C41.9243 13.2793 43.1367 11.5811 43.5408 11.1519C45.8496 8.70209 46.7786 8.37498 47.7263 8.22419C47.7077 8.5281 43.0949 11.428 44.8485 10.7065C45.4454 10.4606 44.809 11.1519 43.65 11.9918C43.3132 12.2354 43.5176 14.1168 43.585 15.0007L43.6035 15.3557C43.7081 15.7292 43.8614 16.0308 44.0402 15.9751C44.1633 15.9357 44.2609 15.8104 44.3445 15.641C45.0691 14.8221 46.4 12.7318 46.8808 12.0567C46.9737 11.9268 48.1955 10.1474 48.4463 10.1544C48.4672 10.3516 47.1921 12.0799 47.134 12.2446C46.8924 12.9128 46.5185 13.5229 46.1864 14.1493C46.1329 14.2491 45.9123 15.6619 45.817 16.2094C45.8217 16.8428 45.975 17.4645 46.2839 18.077C46.3838 18.2765 46.4163 18.592 46.7089 18.5711C47.0109 18.5502 47.1131 18.2417 47.2408 18.0027C47.4243 17.6524 47.5637 17.2905 47.6752 16.9263L47.7449 16.6664C47.8029 13.4997 48.8946 12.4442 49.1896 11.8433L49.3475 11.8479C49.3289 12.1379 48.6112 13.864 48.5694 14.1539C48.516 14.5344 48.4579 16.4785 48.4068 17.2093C48.3882 19.1117 48.9712 20.8887 50.2858 21.9513C50.5506 22.1647 50.6784 22.0835 50.7666 21.7285C50.913 21.1323 50.4833 19.6174 50.402 18.2046C50.3648 17.5457 50.6761 15.7918 50.6389 15.6387C50.2882 14.1261 49.8469 16.3486 50.0141 13.8013C50.0722 12.9058 50.4995 12.0382 50.6644 11.6855L50.4902 12.8246C50.5135 15.2536 51.0523 12.8641 51.0988 13.0265C51.3729 13.9892 50.4856 16.6896 51.5587 14.8082C51.5958 14.7432 50.7573 17.7661 50.8735 17.7916C51.2056 17.8682 51.9977 16.4182 52.3089 15.8173C51.0616 18.3786 51.6609 20.7379 52.2903 20.5686C52.36 20.2531 52.6248 19.1001 52.6921 18.8634L52.7363 18.6662L54.3737 14.1563C53.7582 13.5345 52.6828 12.001 52.6248 8.85289C52.5528 4.98555 51.043 4.38701 49.6912 3.90214C48.3766 3.42888 45.9889 3.40104 43.6732 3.98334C43.5292 4.02046 43.4549 3.81863 43.5896 3.75135C44.8694 3.11568 47.2966 2.72826 49.2732 2.95793C51.3496 3.1992 52.7455 4.28957 53.2612 6.69999C53.6235 8.4005 53.8372 11.8085 54.901 12.8432L55.2052 12.0869L55.2982 11.8572L55.5327 11.7807L55.8045 11.6925C56.2504 11.5487 57.4838 11.2819 57.9576 11.1937C54.4806 8.38426 56.6569 5.60266 52.8826 2.97417C49.9746 0.948863 45.7102 2.09955 43.6872 2.83497C43.5292 2.84425 39.9523 4.26405 38.3938 5.80913C36.5589 7.62796 40.4099 5.62122 42.0404 5.3521M47.0597 4.90668L47.9493 4.76052C47.9493 4.76052 50.1093 4.39861 50.9989 7.05262C51.3845 8.20331 51.842 12.2725 52.3089 13.0566C52.7757 13.8408 51.7979 13.335 51.7979 13.335C51.7979 13.335 51.5749 10.384 51.3427 10.6671C50.6993 11.4512 50.5832 11.37 51.0848 9.99198C51.2776 9.46303 51.266 8.81113 50.9757 8.94105C48.941 9.86902 48.6484 9.73447 50.4926 8.33786C51.0059 7.95043 51.0918 7.34261 50.2673 7.24285C49.97 7.20573 49.0409 7.66276 48.6623 7.53517C48.3627 7.43541 50.1651 6.39144 49.7679 6.0736C49.3707 5.75809 47.7216 6.21976 47.9818 6.03649C49.9676 4.64916 47.5846 5.38226 47.2014 5.18043C46.8181 4.97859 47.062 4.90436 47.062 4.90436" fill="#919268"/>
<path d="M20.7718 21.7262C20.8717 21.638 21.2457 21.4455 21.1295 21.2204C20.9205 20.8121 21.1574 20.5407 21.4547 20.1231C22.4 18.7915 24.5415 17.4645 25.8863 16.6177C27.3868 15.6758 29.2728 14.3442 29.44 13.973C28.6828 14.0518 28.1951 13.5299 28.3437 12.3096C27.1708 13.386 24.3093 15.4554 21.6823 17.6965C18.4236 20.4781 9.68577 30.716 0.961848 30.0594C0.634353 30.0339 0.0745909 29.8877 0.0095563 30.1545C-0.0833502 30.542 0.460153 30.6324 0.783003 30.7624C2.19286 31.3261 4.14157 31.1475 5.30291 30.7624C9.9761 29.2126 11.242 28.6605 15.4111 25.967C17.3227 24.7305 19.0554 23.2388 20.7695 21.7239" fill="#919268"/>
<path d="M31.9277 15.2183C31.8766 15.2391 31.8185 15.2484 31.7837 15.2809C29.9975 16.8724 29.022 17.6101 27.2429 19.2109C26.9618 19.4637 26.2279 20.336 25.984 20.633L25.6751 20.9276C25.5775 21.0506 25.1664 21.3847 25.2454 21.5471C25.3243 21.7094 25.7958 21.5007 25.9259 21.4218C27.0385 20.7467 26.999 21.2733 27.1012 21.2455C28.3322 20.9183 28.7433 20.5541 29.8071 19.8071C30.98 18.9835 32.5873 17.5707 33.5535 16.362C32.4805 16.7285 31.9377 16.3473 31.9253 15.2183" fill="#919268"/>
<path d="M31.0894 19.8794C30.5575 20.5522 30.0535 21.2598 29.7817 22.0764C29.7097 22.2945 29.6122 22.5613 29.798 22.7167C29.9838 22.8721 30.1905 22.6703 30.374 22.5729C32.3065 21.5266 33.8371 20.007 35.1541 18.2392C35.2423 18.1209 35.3399 17.9979 35.3329 17.8518C35.3027 17.114 35.2655 16.374 35.2307 15.562C35.0008 15.736 34.8382 15.845 34.6895 15.975C33.3424 17.1372 32.1903 18.4851 31.0917 19.8794" fill="#919268"/>
<path d="M32.1874 13.3904C31.2583 13.7199 30.2596 13.822 29.4722 14.5852C29.226 14.8242 28.9217 15.0005 28.6337 15.193C27.0497 16.2533 25.4563 17.2903 23.8862 18.369C23.1081 18.9026 22.3532 19.4826 21.7493 20.2343C21.6262 20.3874 21.4451 20.566 21.5612 20.7516C21.6681 20.921 21.9282 20.8815 22.0954 20.8374C23.2475 20.5335 24.6294 19.9559 25.3239 19.536C28.1483 17.9282 29.8949 15.9795 32.1015 14.1931C32.2849 14.0447 32.3477 13.8382 32.3988 13.6271C32.4429 13.4438 32.4499 13.3 32.1897 13.3928" fill="#919268"/>
<path d="M30.0855 25.5284C31.572 24.6144 31.9459 24.0785 33.1003 22.7747C34.1455 21.5915 35.3277 20.174 36.2219 18.8749C36.3032 18.7542 36.4217 18.3761 36.2452 18.2554C36.0686 18.1348 35.8852 18.2392 35.7783 18.4596C35.7551 18.5083 35.7179 18.5501 35.6901 18.5965C34.545 20.522 32.3315 22.074 30.6522 23.0159C29.4491 23.4428 29.751 23.9671 28.6942 25.1712C28.441 25.4588 27.5329 26.2337 27.7001 26.4262C27.8998 26.6559 29.0542 26.1641 30.0878 25.5284" fill="#919268"/>
<path d="M41.9542 25.5285C42.2445 25.5354 42.3583 25.2594 42.4837 25.0413C43.5382 23.2016 44.3047 21.2807 44.595 19.2275C44.616 19.086 44.7158 18.9167 44.5509 18.7798C44.3674 18.9932 44.1979 19.2043 44.0144 19.4038C43.1271 20.3852 42.8809 20.3713 42.2886 19.3273C42.2817 19.3134 42.2631 19.3064 42.1655 19.2345C41.6499 20.7378 41.262 22.1971 41.3062 23.6981C41.3201 24.169 41.3851 24.6307 41.5709 25.0529C41.6569 25.2478 41.6894 25.5215 41.9519 25.5285" fill="#919268"/>
<path d="M41.8914 17.5178C41.8635 17.4134 41.7404 17.1327 41.6661 17.2115C40.9786 17.9446 40.2888 18.8471 39.4758 19.3505C39.362 19.4201 39.2761 19.5616 39.2018 19.6846C38.2959 21.2134 37.5411 22.8003 37.0487 24.4845C36.9279 24.8998 36.8303 25.3174 36.8605 25.7396C36.8721 25.9113 36.8745 26.1039 37.0719 26.1572C37.2484 26.2036 37.3576 26.0505 37.4783 25.9438C38.3006 25.206 38.9509 24.3291 39.5455 23.4011C40.5396 21.8491 41.1876 20.1625 41.8217 18.4689C41.9448 18.1395 41.9773 17.8472 41.8868 17.5178" fill="#919268"/>
<path d="M47.844 17.3948C47.556 17.7243 47.3237 18.8726 47.0496 19.1301C46.6409 19.5083 46.4016 19.4758 46.1299 19.0489C45.8976 18.6893 45.5446 17.7799 45.3216 17.4111C44.8663 17.1164 45.2867 20.8492 45.7397 22.1762C45.9232 22.7144 46.1299 23.2619 46.5874 23.6239C46.9521 23.9162 47.1263 23.8744 47.3144 23.3988C47.6791 22.4848 47.8556 21.5405 47.9346 20.5894C47.9973 19.8076 48.1947 17.1303 47.844 17.3925" fill="#919268"/>
<path d="M8.94923 30.6253C8.82613 30.725 8.62406 30.8201 8.68213 30.9918C8.74484 31.1774 8.9562 31.0637 9.09556 31.0313C10.7121 30.674 12.2939 30.0917 13.7943 29.3006C17.0646 27.5722 19.9981 25.2801 22.8991 22.944C23.9165 22.1273 25.4866 21.0138 26.0603 19.6914C24.9315 20.3155 23.2731 21.1135 22.0932 21.3873C21.9074 21.4314 21.7773 21.559 21.6449 21.6819C18.5 24.6004 15.1809 27.2126 11.3973 29.1173C10.5472 29.5442 9.7041 30.0082 8.94691 30.623" fill="#919268"/>
<path d="M37.7757 20.8354C38.1543 20.2531 38.6955 19.7218 38.1241 18.9725C37.8198 18.5734 37.9847 17.9053 38.0242 17.3184C37.6712 17.4019 37.5179 17.6571 37.3599 17.8937C36.2381 19.5617 35.1186 21.2321 34.0014 22.9048C33.5136 23.6355 33.0746 24.3942 32.6914 25.1806C32.5869 25.3941 32.3337 25.6678 32.5288 25.8511C32.6937 26.0088 32.9469 25.7583 33.142 25.6469C33.4718 25.459 33.8086 25.2688 34.0989 25.0275C35.5436 23.8235 36.7584 22.4129 37.7803 20.8377" fill="#919268"/>
<path d="M18.0213 28.4378C18.4463 28.3125 18.8621 28.1478 19.2662 27.9459C20.5344 27.2917 21.7352 26.5122 22.8989 25.6608C24.7198 24.3245 26.4595 22.8699 28.1086 21.3086C27.1354 21.7935 26.4456 21.9953 25.4654 22.0231C25.2262 22.0231 24.9846 22.1159 24.7918 22.2806C23.2356 23.5497 21.6655 24.8024 20.114 26.0737C19.3382 26.7094 18.5834 27.3752 17.8262 28.0364C17.7124 28.1362 17.5335 28.2638 17.638 28.4331C17.7216 28.5677 17.8889 28.4749 18.0213 28.4331" fill="#919268"/>
<path d="M23.2098 27.4011C23.3096 27.3825 23.4072 27.3199 23.5071 27.2805C25.2491 26.5845 26.71 25.4083 28.1431 24.181C28.6262 23.7704 29.1581 23.3969 29.0211 22.6568C29.0025 22.5524 29.0791 22.4155 29.1163 22.2972C29.2766 21.766 30.2126 20.4436 30.4425 19.9216C30.0663 19.6919 26.5637 23.6869 24.9308 25.1136C24.2433 25.7145 23.5698 26.3339 22.9821 27.0415C22.8939 27.1482 22.7383 27.2758 22.8265 27.4081C22.9101 27.5333 23.0843 27.4289 23.2144 27.4034" fill="#919268"/>
<path d="M41.8291 16.0816C42.0498 15.6941 42.2263 15.2951 42.3796 14.8845C42.3796 14.8845 43.3504 13.228 42.9765 13.0587C42.5886 12.8847 41.771 14.2047 41.5341 14.5574C41.1671 15.1026 40.5702 15.6106 40.2613 15.6756C39.8664 15.7591 39.755 14.7801 39.6806 14.1305C38.7655 15.7521 38.517 17.049 38.6354 18.6892C38.6703 19.1648 38.7771 19.1972 39.1766 18.9421C40.3031 18.2136 41.1695 17.2439 41.8314 16.0792" fill="#919268"/>
<path d="M45.4899 15.1211C45.3668 15.0422 44.8093 15.7289 44.8093 15.7289C43.2183 18.086 43.857 15.4528 43.2137 15.3786C42.8862 15.3415 43.1463 13.7361 42.6074 15.5642C42.3845 16.3205 42.4425 17.3018 42.5772 18.0558C42.6632 18.5244 42.5958 19.2343 43.1417 19.283C43.6782 19.3294 43.9987 18.6845 44.2705 18.2182C44.6885 17.5013 44.9022 17.1487 45.3761 15.8936C45.3761 15.8936 45.6176 15.2023 45.4922 15.1188" fill="#919268"/>
<path d="M55.7018 12.2864L53.0911 18.8101C52.9332 19.2833 52.6777 20.1696 52.5267 21.3017C52.3943 22.2853 52.3711 23.2551 52.4547 24.1807C52.5592 25.3477 52.8379 26.4496 53.2816 27.4542C54.055 29.2104 54.8192 30.6116 55.5508 31.6138C56.1152 32.3863 56.4659 32.6531 56.531 32.6972L56.6401 32.7738L56.7725 32.797C56.7981 32.8016 56.9398 32.8248 57.2092 32.8248C57.46 32.8248 57.8201 32.8039 58.3008 32.732C58.9024 32.6415 59.5644 32.4884 60.2774 32.2796C60.2937 32.275 60.31 32.2704 60.3262 32.2657C60.4702 32.2216 60.6189 32.1752 60.7675 32.1288C60.8256 32.1103 60.8813 32.094 60.9371 32.0755C61.0904 32.0244 61.246 31.9711 61.4039 31.9154C61.462 31.8945 61.5201 31.876 61.5781 31.8551C61.7407 31.7971 61.9056 31.7344 62.0728 31.6718C62.1286 31.6509 62.1843 31.63 62.2424 31.6092C62.4654 31.5233 62.693 31.4329 62.9253 31.3377C63.046 31.289 63.1645 31.2357 63.283 31.1823C63.3224 31.1637 63.3619 31.1452 63.4014 31.1266C63.4804 31.0895 63.557 31.0524 63.636 31.0129C63.6825 30.9897 63.7289 30.9642 63.7777 30.9387C63.8474 30.9016 63.9147 30.8645 63.9844 30.8274C64.0355 30.7995 64.0843 30.7717 64.133 30.7415C64.1981 30.7044 64.2631 30.665 64.3282 30.6255C64.3793 30.5954 64.428 30.5629 64.4791 30.5327C64.5418 30.4933 64.6046 30.4515 64.6673 30.4098C64.7184 30.3773 64.7671 30.3425 64.8182 30.31C64.8809 30.2659 64.9437 30.2218 65.004 30.1778C65.0528 30.143 65.0993 30.1105 65.1481 30.0757C65.2177 30.0247 65.2874 29.969 65.3548 29.9156C65.3943 29.8855 65.4314 29.8553 65.4709 29.8251C65.5801 29.737 65.6892 29.6465 65.7961 29.5537C66.4998 28.9459 67.1548 28.2313 67.7425 27.4286C67.9143 27.1943 68.07 26.9693 68.2093 26.7535C68.2093 26.7535 68.2186 26.7373 68.2256 26.728C68.2488 26.6909 68.272 26.6538 68.2953 26.6167C68.3162 26.5819 68.3371 26.5494 68.358 26.5169C68.3812 26.4798 68.4044 26.445 68.4253 26.4079C68.4439 26.3754 68.4625 26.3452 68.4811 26.3151C68.502 26.2803 68.5229 26.2432 68.5438 26.2084C68.56 26.1805 68.5763 26.1527 68.5926 26.1248C68.6344 26.0529 68.6739 25.9833 68.711 25.9184C68.7226 25.8998 68.7319 25.8812 68.7435 25.8627C68.7621 25.8279 68.7807 25.7954 68.797 25.7629C68.8086 25.7397 68.8202 25.7188 68.8341 25.6957C68.8504 25.6655 68.8666 25.6353 68.8829 25.6052C68.8945 25.5843 68.9061 25.5611 68.9154 25.5402C68.9293 25.5124 68.9433 25.4845 68.9572 25.459C68.9665 25.4381 68.9758 25.4196 68.9851 25.401C68.9967 25.3755 69.0106 25.35 69.0223 25.3268C69.0315 25.3082 69.0385 25.292 69.0478 25.2757C69.0571 25.2549 69.0687 25.2317 69.078 25.2108C69.0919 25.1806 69.1059 25.1505 69.1175 25.1249C69.1175 25.1226 69.1198 25.1203 69.1221 25.118C69.1268 25.1087 69.1291 25.1017 69.1337 25.0948C69.1407 25.0785 69.1477 25.0646 69.1523 25.0507C69.1546 25.0461 69.157 25.0414 69.1593 25.0368C69.1616 25.0321 69.1639 25.0252 69.1663 25.0205C69.1686 25.0136 69.1709 25.0089 69.1732 25.002C69.1802 24.9857 69.1872 24.9695 69.1941 24.9556C69.1941 24.9509 69.1988 24.9463 69.2011 24.9417C69.2011 24.937 69.2034 24.9347 69.2057 24.9324C69.2057 24.9278 69.2081 24.9254 69.2104 24.9208C69.2127 24.9138 69.215 24.9092 69.2174 24.9046C69.2174 24.9022 69.2174 24.8999 69.2197 24.8976C69.2197 24.8976 69.2197 24.893 69.222 24.893C69.2243 24.886 69.2266 24.8814 69.2266 24.879L71.7142 18.7358L71.5795 18.483C70.9152 17.2395 69.9629 16.0981 68.7505 15.0935C67.6147 14.1516 66.2536 13.3466 64.8136 12.7666C63.3759 12.1867 61.8359 11.8224 60.3634 11.7134C60.0359 11.6902 59.7107 11.6763 59.3902 11.6763C58.1801 11.6763 57.0327 11.8503 55.9712 12.1936L55.6995 12.2818L55.7018 12.2864ZM65.7821 21.4502C65.2084 21.4548 64.5116 21.7262 63.8961 21.9652C63.6848 22.0487 63.485 22.1253 63.2992 22.1879C62.6349 22.4385 61.9544 22.7006 61.2622 22.9744C61.5688 23.6495 61.8777 24.3106 62.1843 24.9556C62.2424 25.0739 62.3237 25.2433 62.412 25.4335C62.6233 25.8812 62.8835 26.438 63.053 26.6909C63.1947 26.909 63.3178 27.0691 63.4572 27.2059L63.5756 27.3219L62.254 27.8439L62.247 27.6931C62.2215 27.141 61.9149 26.4612 61.6455 25.8604C61.5526 25.6539 61.4643 25.459 61.3923 25.2781C61.1089 24.6262 60.8093 23.958 60.5004 23.2806C59.8315 23.5497 59.1533 23.8281 58.4704 24.1135C58.3078 24.1854 58.129 24.2573 57.9385 24.3338C57.3137 24.5867 56.6076 24.8744 56.1593 25.2386L56.0502 25.3268L55.4811 24.081L55.6344 24.0694C56.2244 24.023 56.9374 23.7492 57.5692 23.5079C57.762 23.4337 57.9432 23.3641 58.1127 23.3038C58.8025 23.0486 59.4831 22.7888 60.152 22.5289C59.8501 21.8794 59.5388 21.2205 59.2206 20.557C59.1416 20.3969 59.058 20.2229 58.9721 20.0373C58.6864 19.4272 58.3636 18.7358 57.9687 18.2904L57.9385 18.2556L57.9432 18.2092C57.9478 18.1659 58.1375 18.07 58.5122 17.9215L59.144 17.6733L59.1602 17.8125C59.2276 18.3809 59.5388 19.0792 59.8129 19.6963C59.8965 19.8842 59.9755 20.0605 60.0428 20.2252C60.3355 20.905 60.6305 21.5731 60.9255 22.2297C61.6199 21.9559 62.2981 21.6822 62.9578 21.4084C63.0786 21.355 63.2528 21.2854 63.4479 21.2043C63.9054 21.0163 64.4745 20.7843 64.73 20.6335C64.953 20.506 65.1132 20.3923 65.2502 20.2624L65.3594 20.1603L65.9494 21.4525H65.7821V21.4502ZM65.3664 17.3091C65.4639 17.3439 65.601 17.3972 65.7566 17.4552C66.1143 17.5944 66.5626 17.7661 66.7902 17.8079C66.9876 17.8473 67.1409 17.8612 67.2942 17.8519L67.4661 17.8403L66.9342 19.1581L66.818 19.0281C66.5207 18.6941 65.9842 18.4737 65.5104 18.2811C65.3455 18.2139 65.1899 18.1512 65.0505 18.0839C63.8659 17.5782 62.5954 17.0724 61.2808 16.5806C61.1508 16.5342 61.0091 16.4785 60.8581 16.4205C60.3703 16.2303 59.8152 16.0169 59.3553 16.0099H59.1974L59.7084 14.7432L59.8222 14.8523C60.1567 15.1655 60.7048 15.3951 61.1879 15.597C61.3366 15.6596 61.4759 15.7176 61.6037 15.7756C62.8904 16.3324 64.1563 16.8474 65.3641 17.3068M56.38 12.871L56.531 12.8386L56.7749 12.7852L56.8956 12.7597C56.9374 12.7504 56.9769 12.7411 57.0187 12.7365L57.2626 12.6947C57.3439 12.6808 57.4252 12.6669 57.5065 12.6576C57.834 12.6135 58.1615 12.5857 58.4913 12.5741C58.6562 12.5694 58.8188 12.5602 58.9837 12.5648C59.1486 12.5671 59.3112 12.5648 59.4738 12.5787C59.6364 12.588 59.8013 12.5926 59.9615 12.6112C60.1241 12.6274 60.2867 12.6414 60.447 12.6646C61.0927 12.7481 61.7291 12.885 62.3492 13.0659C62.9694 13.2469 63.5733 13.4742 64.1563 13.7457C64.0007 13.6993 63.8427 13.6552 63.6848 13.6111C63.3666 13.4905 63.0437 13.3814 62.7185 13.2863C62.0984 13.1054 61.462 12.9685 60.8163 12.885C60.656 12.8594 60.4934 12.8478 60.3309 12.8316C60.1683 12.813 60.0057 12.8084 59.8431 12.7968C59.6805 12.7852 59.5156 12.7852 59.353 12.7829C59.1904 12.7782 59.0255 12.7875 58.8606 12.7922C58.5331 12.8061 58.2033 12.8339 57.8758 12.8757C57.7945 12.885 57.7132 12.8989 57.6319 12.9128L57.388 12.9546C57.3462 12.9615 57.3067 12.9708 57.2673 12.9801L57.1465 13.0056L56.9026 13.059L56.7516 13.0914L56.6843 13.2538C56.0572 14.7966 55.444 16.344 54.8447 17.8983L54.6194 18.4806L54.5079 18.773L54.3964 19.0676L54.3802 19.1093L54.3663 19.1488L54.3407 19.2277C54.3244 19.2787 54.3082 19.3321 54.2919 19.3831L54.2455 19.5385L54.2013 19.694C54.1433 19.9004 54.0922 20.1092 54.0457 20.318C53.9528 20.7356 53.8808 21.1579 53.8251 21.5801L53.7879 21.8979L53.7717 22.058L53.7577 22.2181C53.7415 22.4315 53.7322 22.6449 53.7252 22.8584C53.7206 23.0718 53.7206 23.2852 53.7252 23.4987C53.7298 23.7121 53.7438 23.9255 53.76 24.139C53.7949 24.5658 53.8553 24.9904 53.9459 25.4103C54.0341 25.8279 54.1502 26.2432 54.2966 26.6445C54.3686 26.8463 54.4499 27.0435 54.5358 27.2384C54.5776 27.3358 54.6264 27.4333 54.6728 27.5284L54.8145 27.8068C55.0003 28.1803 55.2001 28.5469 55.3998 28.9111L55.5555 29.1825L55.6344 29.3171L55.7134 29.4516C55.7668 29.5421 55.8202 29.6303 55.8737 29.7207L56.0386 29.9852C56.171 30.194 56.3103 30.4005 56.452 30.6046C56.4706 30.6371 56.4892 30.6719 56.5077 30.7044C56.7168 31.0593 56.9351 31.4097 57.1836 31.7414C57.0373 31.5953 56.898 31.4398 56.7632 31.2821C56.7284 31.2426 56.6959 31.2032 56.6634 31.1614C56.6309 31.122 56.596 31.0802 56.5658 31.0408C56.5031 30.9573 56.4381 30.8761 56.3754 30.7926C56.1268 30.4585 55.8922 30.1128 55.6693 29.7625L55.5044 29.498C55.4486 29.4099 55.3975 29.3194 55.3441 29.2312L55.2628 29.0967L55.1838 28.9621L55.0282 28.6907C54.8261 28.3265 54.6287 27.9599 54.4429 27.5864L54.3012 27.308C54.2548 27.2129 54.2083 27.1155 54.1642 27.018C54.0782 26.8231 53.997 26.6236 53.9249 26.4241C53.7786 26.0228 53.6648 25.6075 53.5742 25.1899C53.486 24.77 53.4256 24.3454 53.3884 23.9186C53.3698 23.7051 53.3582 23.4917 53.3536 23.2783C53.3489 23.0648 53.3489 22.8514 53.3536 22.638C53.3582 22.4245 53.3698 22.2111 53.3861 21.9977L53.4 21.8376L53.4163 21.6775L53.4534 21.3597C53.5092 20.9351 53.5789 20.5152 53.6741 20.0976C53.7206 19.8888 53.7717 19.6801 53.8297 19.4736L53.8738 19.3181L53.9203 19.1627C53.9366 19.1117 53.9528 19.0583 53.9691 19.0073L53.9946 18.9284L54.0086 18.889L54.0248 18.8472L54.1363 18.5526L54.2478 18.2603L54.4731 17.6779C55.0723 16.1259 55.6855 14.5762 56.3126 13.0334L56.38 12.8687V12.871Z" fill="#919268"/>
<path d="M85.0839 32.05L97.6472 36.6296L97.8771 35.2794L84.9771 30.2822C85.0212 30.5676 85.1071 31.4004 85.0839 32.0477" fill="#919268"/>
<path d="M82.0595 32.8852C81.9759 32.7576 81.8157 32.7228 81.6531 32.7645C81.2187 32.8713 80.7472 32.8736 80.3175 32.7437C80.3152 32.7437 80.3129 32.7437 80.3106 32.7414C80.3106 32.7414 80.3059 32.7414 80.3036 32.7414C79.8832 32.6138 79.572 32.3841 79.3862 32.1103C79.3002 31.9851 79.1585 31.934 78.9983 31.9595C78.5732 32.0314 78.1156 31.9967 77.7045 31.8296C77.7045 31.8296 77.6999 31.8296 77.6976 31.8273C77.6952 31.8273 77.6929 31.8273 77.6906 31.825C77.2865 31.6626 76.9892 31.4074 76.8196 31.1174C76.743 30.9875 76.6082 30.9272 76.4526 30.9411C76.0392 30.9805 75.5979 30.9086 75.2007 30.7091C75.1984 30.7091 75.1961 30.7068 75.1937 30.7068C75.1937 30.7068 75.1891 30.7068 75.1868 30.7044C74.7989 30.5096 74.5178 30.2289 74.3622 29.9203C74.2949 29.7858 74.1671 29.7185 74.0185 29.7208C73.6167 29.7278 73.1893 29.621 72.813 29.3914C72.813 29.3914 72.8084 29.389 72.806 29.3867C72.806 29.3867 72.8014 29.3867 72.7991 29.3821C72.4274 29.1547 72.165 28.8485 72.0233 28.5283C71.9629 28.3915 71.8445 28.3172 71.7028 28.308C71.3126 28.2824 70.9015 28.1432 70.5438 27.8834C70.5438 27.8834 70.5415 27.8811 70.5391 27.8788C70.5391 27.8788 70.5345 27.8764 70.5345 27.8741C70.1791 27.6166 69.9329 27.2895 69.8075 26.9554C69.7564 26.8186 69.6449 26.735 69.5102 26.7165C69.3267 26.691 69.1386 26.6353 68.9574 26.5518C68.8552 26.7211 68.7437 26.9021 68.6206 27.0877C68.8598 27.2361 69.1107 27.3336 69.3546 27.373C69.487 27.3939 69.5961 27.4821 69.6472 27.6305C69.7703 27.9901 70.0119 28.3474 70.3603 28.6258C70.3603 28.6258 70.3649 28.6281 70.3672 28.6304C70.3672 28.6304 70.3696 28.6327 70.3719 28.6351C70.7226 28.9158 71.1268 29.0689 71.51 29.0944C71.6494 29.1037 71.7655 29.1849 71.8259 29.3334C71.9652 29.679 72.2231 30.0108 72.5877 30.2567C72.5877 30.2567 72.5924 30.259 72.5947 30.2613C72.5947 30.2613 72.5993 30.2637 72.6016 30.266C72.9709 30.5142 73.389 30.6302 73.7862 30.6232C73.9325 30.6209 74.058 30.6952 74.123 30.839C74.2763 31.1708 74.5504 31.4747 74.9336 31.6858C74.9336 31.6858 74.9382 31.6858 74.9406 31.6881C74.9406 31.6881 74.9452 31.6904 74.9475 31.6927C75.3354 31.9062 75.7698 31.9851 76.1762 31.9433C76.3272 31.9271 76.4596 31.992 76.5362 32.1335C76.7035 32.449 76.9938 32.7251 77.391 32.8991C77.391 32.8991 77.3956 32.8991 77.398 32.9014C77.4003 32.9014 77.4026 32.9014 77.4049 32.9037C77.8091 33.0824 78.2597 33.1218 78.6754 33.0429C78.831 33.0128 78.9727 33.0685 79.0563 33.2053C79.2398 33.5023 79.5441 33.7505 79.9575 33.8874C79.9598 33.8874 79.9622 33.8874 79.9645 33.8874C79.9645 33.8874 79.9691 33.8874 79.9715 33.8897C80.3942 34.0312 80.8564 34.0289 81.2838 33.9129C81.444 33.8688 81.602 33.906 81.6833 34.0452C82.3406 35.168 83.5832 35.2562 83.9943 35.1262C84.1615 34.7319 84.2823 34.3189 84.3706 33.8967C83.913 33.9988 82.7122 33.8897 82.0642 32.8852" fill="#919268"/>
<path d="M68.4787 6.54451C71.382 5.98308 74.3713 6.80666 74.8033 7.83903C74.8196 7.87383 74.8196 7.89703 74.8196 7.89703C75.1471 7.94575 75.305 6.95977 75.082 6.78114C75.2167 6.52131 75.1587 6.22435 75.1029 6.01556C75.0425 5.77893 74.8428 5.65597 74.6941 5.54693C74.6779 5.08526 74.3992 4.74887 73.9671 4.77207C73.7604 4.35912 73.3098 4.00417 72.9684 4.13641C72.9452 4.14569 72.9219 4.15497 72.901 4.16425C72.7152 3.93226 72.4319 3.78842 72.116 3.80002C71.9789 3.80466 71.8512 3.83946 71.7351 3.89514C71.5214 3.76754 71.2543 3.69562 70.9639 3.7049C70.5133 3.72114 70.1278 3.93226 69.928 4.23385C69.9048 4.23385 69.8839 4.23385 69.8607 4.23385C69.273 4.25473 68.8108 4.66304 68.8294 5.14558C68.8294 5.16646 68.8341 5.18502 68.8364 5.20358C68.4996 5.54229 68.1256 5.88564 68.4764 6.54683" fill="#919268"/>
<path d="M59.9755 11.2103C60.1799 11.2149 60.3843 11.2242 60.5886 11.2404C62.0473 11.3471 63.571 11.709 64.9924 12.2798C65.018 12.289 65.0435 12.3006 65.0691 12.3122C65.1364 12.2983 65.2038 12.2751 65.2711 12.2403C65.4291 12.1638 65.5499 12.0501 65.6149 11.9341C65.745 11.9457 65.9052 11.9109 66.0585 11.825C66.0887 11.8065 66.1189 11.7879 66.1445 11.767C66.2049 11.8668 66.2676 11.9642 66.3326 12.0617C66.3651 12.1104 66.4 12.1568 66.4325 12.2055C66.6253 12.4793 66.7693 12.9061 66.9528 13.2518C67.6403 13.6532 68.2906 14.1009 68.8782 14.5881C68.9804 14.6716 69.078 14.7574 69.1779 14.8433C69.5286 14.1821 69.7446 13.3237 69.8027 13.4049L70.2184 13.6323C70.2718 13.688 70.8966 15.0103 70.3299 15.9986C70.3949 16.0728 70.4855 16.1796 70.5831 16.3002L72.1648 18.3139L70.6876 22.7171C71.9767 23.2299 73.0985 23.8261 74.6384 24.2576C77.2886 21.1721 80.8887 18.6967 85.4922 17.8383C81.4322 19.2419 77.6881 21.5293 75.5954 24.6984C77.9413 25.7238 80.8632 26.7794 83.7224 27.2178C84.2868 25.9651 85.5898 24.5128 86.8301 23.6335C85.1299 23.3343 84.4703 22.4086 84.8047 20.8264C84.9162 21.824 85.7501 23.2043 87.4456 22.7983C88.5767 22.6035 90.7879 23.7704 91.4545 26.1135C88.9646 25.0626 87.2946 27.1969 86.5514 27.5565C85.8012 27.9184 83.943 27.3129 83.7224 27.2178C83.6155 27.9811 83.9755 28.4636 83.9755 28.4636C79.2094 27.3686 74.4549 25.7818 70.237 23.7843L69.8677 24.6984C69.8677 24.6984 72.058 28.1899 73.8278 25.6472C73.8278 25.6472 74.5897 25.972 74.8126 26.0416C75.0542 26.1159 72.5991 28.3152 69.4334 25.6635C69.3869 25.7609 69.3451 25.8467 69.3195 25.9024C69.2475 26.0393 69.1662 26.1878 69.0733 26.3502C69.2777 26.4522 69.4891 26.5195 69.6958 26.5497C69.8305 26.5682 69.942 26.6518 69.9931 26.7886C70.1185 27.1227 70.3647 27.4498 70.7201 27.7073C70.7201 27.7073 70.7248 27.7096 70.7271 27.712C70.7271 27.712 70.7317 27.7143 70.7317 27.7166C71.0894 27.9764 71.4982 28.118 71.8907 28.1412C72.0324 28.1504 72.1509 28.2247 72.2113 28.3616C72.3529 28.6817 72.6154 28.9879 72.987 29.2153C72.987 29.2153 72.9917 29.2153 72.994 29.2199C72.994 29.2199 72.9986 29.2222 72.9986 29.2246C73.3749 29.4542 73.8023 29.561 74.2041 29.554C74.3528 29.5517 74.4805 29.619 74.5479 29.7535C74.7035 30.0597 74.9822 30.3428 75.3724 30.5377C75.3724 30.5377 75.377 30.5377 75.3794 30.54C75.3794 30.54 75.384 30.54 75.3863 30.5423C75.7812 30.7395 76.2225 30.8137 76.6382 30.7743C76.7915 30.7604 76.9263 30.8207 77.0052 30.9506C77.1771 31.2406 77.4721 31.4981 77.8762 31.6582C77.8786 31.6582 77.8809 31.6582 77.8832 31.6605C77.8855 31.6605 77.8878 31.6605 77.8902 31.6628C78.3036 31.8275 78.7588 31.8647 79.1839 31.7904C79.3418 31.7626 79.4858 31.8136 79.5718 31.9412C79.7576 32.215 80.0688 32.4446 80.4892 32.5722C80.4916 32.5722 80.4939 32.5722 80.4962 32.5722C80.4985 32.5722 80.5008 32.5722 80.5032 32.5746C80.9329 32.7045 81.4044 32.7045 81.8387 32.5954C82.0013 32.556 82.1639 32.5885 82.2452 32.7161C82.8258 33.6185 83.8548 33.7972 84.389 33.7508C84.828 31.3728 84.1544 28.8302 83.9779 28.4636C86.1472 29.2408 87.3109 28.8998 88.0356 27.8976C88.8415 26.784 89.9773 25.1415 91.4429 27.3245C91.1781 27.6679 90.7252 27.9788 91.0155 28.2015C91.7681 28.7815 92.516 30.076 94.388 29.4194C94.5576 29.3591 94.906 29.5122 95.1545 29.2918C95.4565 29.0204 95.8653 28.626 95.9117 27.937C95.9117 27.937 95.5076 27.9579 94.6203 27.8604C93.5403 27.7421 92.9387 27.4127 92.9387 27.4127C92.3139 21.1257 89.0622 22.7891 87.4038 20.2186C86.7674 19.2326 86.7627 17.1725 88.7788 16.502C87.8869 17.1887 87.571 19.214 88.9251 20.6037C90.6602 22.3808 92.9526 20.9215 94.0164 27.1552C94.0164 27.1552 94.5785 27.422 95.5099 27.4521C96.5713 27.4846 96.9732 27.3176 96.9732 27.3176C96.9105 19.9889 96.713 15.7643 96.1649 14.7366C94.5878 15.5485 93.2197 14.8618 93.2197 14.8618C93.2197 14.8618 94.4879 14.769 95.1661 14.3561C93.6982 12.3865 96.8942 13.9176 96.648 10.8669C94.3857 10.7857 93.4892 12.4259 93.4032 13.1033C92.2349 12.7437 94.8061 11.4446 93.6564 10.4308C91.4917 11.0548 91.3639 12.2102 91.3639 12.2102C91.3639 12.2334 91.3593 12.2542 91.3593 12.2774C91.3593 12.2774 90.2467 11.2984 89.1737 11.6279C88.4142 11.8598 88.5489 11.2056 88.5489 10.8205C88.5489 10.7904 88.4351 10.8321 88.2887 10.9504C88.2237 11.0084 88.161 11.0734 88.0959 11.1383C87.859 11.4167 87.6337 11.8761 87.7197 12.5373C87.7197 12.5373 87.0229 11.8993 87.5385 11.0107C85.8081 10.3264 83.4553 12.1638 83.0418 14.2795C83.0418 14.2795 82.798 12.9827 83.5737 11.9805C82.0059 11.9828 79.9155 13.7228 80.2732 15.5717C80.2732 15.5717 79.8203 15.2098 79.8714 14.3051C78.7333 14.2772 77.3954 16.1146 77.7113 17.3233C77.7113 17.3233 77.5789 17.1864 77.5116 16.5995C77.5 16.4974 77.5023 16.3884 77.5162 16.27C76.1296 16.1564 74.3318 18.5366 75.2888 20.0678C75.2888 20.0678 74.9195 20.0098 74.7685 19.1421C74.7035 18.7779 74.7824 18.3046 74.9566 17.8012C74.0253 17.8685 73.3865 19.3648 72.5713 20.9169L72.4017 20.3995C72.4017 20.3995 72.7339 18.7965 73.8882 18.126C73.8882 18.126 73.2379 17.8708 72.8755 17.3581C72.2809 16.5183 71.842 16.0427 71.5168 15.7991C71.5145 15.7805 71.5121 15.762 71.5098 15.7434C73.1845 15.4441 74.7011 14.5997 75.8462 13.3098C77.1887 11.7949 77.86 9.84614 77.7369 7.82547C77.6138 5.80481 76.7103 3.9535 75.1936 2.61258C73.6769 1.27165 71.7258 0.598872 69.7028 0.721828C65.5266 0.974701 62.3376 4.57524 62.5908 8.74649C62.6001 8.91353 62.6187 9.08056 62.6396 9.24528C62.5211 9.19888 62.3678 9.18032 62.1959 9.19888C62.1959 9.19888 62.1959 9.19888 62.1936 9.19888C62.1936 9.19888 62.1936 9.19888 62.1913 9.19888C61.9915 9.21976 61.7384 9.59559 61.6037 9.68142C61.52 9.63271 61.4759 9.48191 61.3458 9.47031C61.1043 9.45407 60.6467 9.76958 60.6653 9.88326C60.6676 10.0062 61.3969 9.67678 61.0787 10.0387C61.03 10.0944 61.5526 9.93894 61.6083 9.90646C61.7291 9.97606 61.9079 10.0132 62.1146 9.99694C62.1146 9.99694 62.1146 9.99694 62.117 9.99694C62.117 9.99694 62.117 9.99694 62.1193 9.99694C62.326 9.9807 62.5188 9.91342 62.6558 9.82062C62.6814 9.83454 62.7116 9.84614 62.7441 9.85542C62.7673 9.9691 62.7952 10.0851 62.8254 10.1964C62.7255 10.208 62.5978 10.2359 62.4259 10.2962C61.5618 10.2312 60.6885 10.6628 59.9731 11.2079M65.6799 11.1546C65.5359 11.2427 65.4314 11.3611 65.3733 11.4794C65.2433 11.4678 65.0876 11.5026 64.939 11.5838C64.8925 11.607 64.8531 11.6348 64.8136 11.665C64.7276 11.4144 64.6069 11.2079 64.5767 11.1731C64.5279 11.1198 64.4768 11.0687 64.3932 10.9806C64.3955 10.9806 64.3978 10.9806 64.4001 10.9806C64.5256 10.9667 64.586 10.9504 64.651 10.9597C64.8949 10.9922 65.1388 11.0223 65.385 11.0038C65.5777 10.9875 65.6892 11.0247 65.7705 11.1059C65.7426 11.1198 65.7148 11.1337 65.6869 11.1499M63.5245 10.3194C63.4757 10.157 63.4316 9.9923 63.3944 9.82758C63.5129 9.78814 63.622 9.73246 63.7057 9.6675C63.8311 9.72782 64.0146 9.74638 64.219 9.70462C64.219 9.70462 64.219 9.70462 64.2213 9.70462C64.2213 9.70462 64.2213 9.70462 64.2236 9.70462C64.428 9.66286 64.6115 9.57007 64.7393 9.45639C64.867 9.50975 65.0505 9.51903 65.2526 9.46567C65.2526 9.46567 65.2526 9.46567 65.2549 9.46567C65.2549 9.46567 65.2549 9.46567 65.2572 9.46567C65.4593 9.41231 65.6381 9.30559 65.7612 9.18032C65.8913 9.22904 66.0748 9.22904 66.2745 9.16176C66.2745 9.16176 66.2745 9.16176 66.2769 9.16176C66.2769 9.16176 66.2768 9.16176 66.2792 9.16176C66.3721 9.1316 66.4603 9.08752 66.5393 9.03648C65.9331 9.50743 64.5627 10.331 63.5222 10.3217M69.7469 1.35285C71.6004 1.23917 73.3865 1.85396 74.7778 3.08352C76.1877 4.33165 77.0215 6.06 77.1144 7.94147C77.198 9.61647 76.6661 11.2799 75.6209 12.5929C74.5757 13.9083 73.1357 14.776 71.5284 15.0915C71.5075 14.9338 71.4727 14.7644 71.4099 14.5858C71.2613 14.0916 70.734 13.4629 70.6017 13.3353C70.597 13.3307 70.597 13.326 70.5947 13.3237C70.4855 13.2356 70.374 13.1474 70.2509 13.0639C70.1789 13.0152 70.0883 12.9781 70.0326 12.9201C69.9792 12.8644 69.9118 12.7739 69.935 12.7229C70.028 12.5071 70.2625 12.1568 70.5436 11.89C70.82 12.1707 71.5656 12.5071 71.9442 12.3494C72.267 12.2171 72.411 11.9503 72.4853 11.7206C72.5341 11.5722 72.6317 11.6047 72.6526 11.5954L72.6711 11.5907C72.8477 11.5675 72.8988 11.426 72.9057 11.3773C72.9057 11.3634 72.9104 11.3495 72.9127 11.3379C72.9266 11.3309 72.9406 11.3239 72.9522 11.3216C73.1032 11.2845 73.0915 11.1082 73.0915 11.1082C73.1125 10.962 73.1055 10.8924 73.1635 10.8321C73.3238 10.846 73.4957 10.8878 73.577 10.8808C73.7907 10.8623 73.872 10.7347 73.9068 10.5004C73.937 10.3032 74.0485 9.32647 74.1182 9.16408C74.1414 9.11072 74.1925 9.07824 74.2389 9.04576C74.2761 9.02024 74.3109 8.99472 74.3481 8.9692C74.441 8.89961 74.4457 8.75809 74.4759 8.66065L74.5107 8.54697C74.5386 8.4565 74.5502 8.41938 74.599 8.2361C74.513 8.14099 74.3876 8.01107 74.304 7.91363C74.2552 8.19202 74.2668 8.31266 74.2389 8.39386L74.1971 8.50754C74.1902 8.52841 74.1739 8.56089 74.1205 8.59801C74.0856 8.62121 74.0508 8.64209 74.016 8.66529C73.8929 8.74185 73.8162 8.83929 73.793 8.98776C73.6838 9.64663 73.635 10.273 73.5816 10.4261C73.5468 10.5259 73.4608 10.5421 73.3819 10.5421C73.3076 10.5421 73.2541 10.4818 73.0985 10.4609C73.0451 10.454 72.9383 10.4772 72.8755 10.6164C72.8244 10.7254 72.7989 10.7973 72.7826 10.9551C72.7757 11.027 72.6619 11.027 72.6317 11.0455C72.5922 11.0687 72.6061 11.0711 72.5852 11.1198C72.562 11.1708 72.5713 11.2845 72.4528 11.2891C72.2415 11.2984 72.1276 11.7392 72.1207 11.7647C71.8629 12.528 70.6133 11.4747 70.4205 11.2103C70.1278 10.8089 70.0372 10.6883 69.9815 10.1663C69.9815 10.1524 69.9234 10.2173 69.8956 10.3124C69.7562 10.5955 69.8421 11.1824 70.0001 11.4005C70.0419 11.4585 68.8155 13.1497 68.632 13.1776C67.3685 12.3401 67.2291 11.7833 67.2013 10.9875C67.3104 10.9713 67.4266 10.9249 67.5357 10.8414C67.6728 10.7347 67.7634 10.5955 67.7982 10.4586C67.9259 10.4563 68.0746 10.3983 68.2 10.2823C68.3254 10.1686 68.4067 10.0178 68.43 9.8763C68.5252 9.86934 68.6297 9.8299 68.7249 9.75798C69.8677 9.9459 70.1232 9.13856 70.0837 9.0968C69.719 8.55393 69.949 8.15722 70.2254 7.95771C70.2997 8.08067 70.4507 8.18507 70.6435 8.23378C70.8177 8.27786 70.9895 8.26626 71.1196 8.2129C71.2381 8.29642 71.4146 8.2941 71.4912 8.2941C71.6236 8.2941 71.7421 8.2593 71.8303 8.20362C71.9186 8.28018 72.058 8.3289 72.2136 8.3289C72.4133 8.3289 72.548 8.29642 72.6247 8.21986C72.6804 8.23378 72.7385 8.24538 72.8035 8.24538C72.9754 8.24538 73.1264 8.18506 73.2123 8.09691C73.2797 8.12011 73.354 8.13635 73.433 8.14563C73.7256 8.17579 74.1948 7.92755 74.1716 7.82083C74.1855 7.76284 72.4319 6.42191 68.4509 6.87198C68.2836 7.32205 67.6194 7.49604 67.6705 7.67004C67.6774 7.69324 67.6797 7.71412 67.6844 7.735C67.4986 7.76516 67.271 7.82779 67.1548 7.87883C67.1548 7.87883 67.1548 7.87883 67.1525 7.87883C67.1525 7.87883 67.1525 7.87883 67.1502 7.87883C66.9644 7.96235 66.8041 8.08995 66.6973 8.22682C66.5649 8.18506 66.3883 8.19898 66.1979 8.26858C66.1979 8.26858 66.1979 8.26858 66.1956 8.26858C66.1956 8.26858 66.1956 8.26858 66.1932 8.26858C66.0028 8.3405 65.8379 8.45418 65.7217 8.58177C65.5917 8.53538 65.4128 8.53769 65.22 8.59569C65.22 8.59569 65.22 8.59569 65.2177 8.59569C65.2177 8.59569 65.2177 8.59569 65.2154 8.59569C65.0203 8.65369 64.8484 8.75577 64.7276 8.87177C64.5999 8.81841 64.421 8.81145 64.2259 8.85785C64.2259 8.85785 64.2259 8.85785 64.2236 8.85785C64.2236 8.85785 64.2236 8.85785 64.2213 8.85785C64.0239 8.90425 63.8473 8.9924 63.7219 9.09912C63.6058 9.04576 63.4455 9.02952 63.2667 9.05272C63.2551 8.93904 63.2435 8.82305 63.2365 8.70937C63.0042 4.88844 65.9261 1.58948 69.7539 1.35517" fill="#919268"/>
</g>
<defs>
<clipPath id="clip0_4022_2118">
<rect width="124" height="65" fill="white"/>
</clipPath>
</defs>
</svg>
