<svg width="432" height="226" viewBox="0 0 432 226" fill="none" xmlns="http://www.w3.org/2000/svg">
<g clip-path="url(#clip0_4007_2449)">
<path d="M232.224 29.7321C230.146 29.7079 228.197 30.442 226.435 31.4825C224.777 32.4585 222.756 32.7005 220.904 33.1522C220.063 33.3539 219.813 34.0879 219.974 34.7413C219.748 34.9752 219.602 35.2898 219.602 35.6608C219.602 36.3626 220.233 37.0724 220.969 37.024C222.068 36.9514 223.16 36.7498 224.195 36.3545C225.222 35.9593 226.095 35.4108 227.017 34.8219C227.858 34.2896 228.804 34.0637 229.733 33.7169C230.825 33.3055 231.892 32.8296 232.919 32.2811C234.14 31.6277 233.542 29.7563 232.232 29.7402" fill="black"/>
<path d="M314.613 132.601C313.918 132.343 313.141 132.254 312.422 132.464C304.49 134.763 301.458 134.779 294.246 136.086L296.146 139.167C300.269 139.167 311.169 137.344 311.169 137.344C311.169 137.344 320.265 141.788 320.636 151.815C320.636 151.815 315.195 162.123 313.077 166.576C310.983 170.988 308.702 175.57 308.411 180.313L308.169 181.313C307.279 183.475 305.654 185.274 303.358 186.725C301.644 187.814 299.946 188.613 297.537 189.266C299.235 192.824 303.778 197.623 309.988 198.72C313.57 194.316 314.354 190.275 317.904 185.717C314.952 183.846 313.473 181.031 315.405 179.006C316.836 178.651 318.623 178.538 320.677 178.619C324.517 176.675 326.466 174.312 326.288 171.48C322.367 162.051 323.07 154.267 326.652 144.321C326.943 143.507 326.846 142.603 326.385 141.869C323.798 137.723 319.424 134.384 314.605 132.601" fill="black"/>
<path d="M134.027 172.755C125.464 175.513 114.428 177.207 100.545 178.151C100.594 181.91 99.4619 188.266 97.5699 191.743C96.1631 192.186 95.2009 191.065 93.4626 191.146C93.6323 193.291 93.883 194.34 94.4085 196.816L94.3762 198.317C93.9234 200.107 93.0583 201.729 91.8859 203.221V203.237C90.7701 204.649 89.4118 205.923 87.8917 207.109L85.0619 209.319L81.189 208.182C80.3562 207.94 79.7417 207.786 79.3536 207.73C75.3837 212.505 76.7986 220.959 79.0383 225.992C85.6117 224.04 89.0237 222.628 95.2413 220.249C96.1712 215.764 98.7504 211.094 104.822 212.57C107.119 210.537 109.528 208.77 109.949 206.23C106.52 194.784 111.283 183.668 119.352 180.41C141.296 178.345 149.761 171.98 160.523 165.027C160.523 165.027 153.189 163.47 151.402 163.051C147.109 166.269 143.867 169.585 134.027 172.755Z" fill="black"/>
<path d="M261.436 151.549C263.142 152.565 264.654 151.25 266.683 149.58C268.09 148.419 269.861 145.999 268.794 144.797C268.325 144.265 266.538 141.175 265.018 139.498C264.993 139.804 263.886 141.2 261.695 142.224C259.431 143.281 258.088 143.676 256.366 143.224C256.269 143.321 259.269 150.25 261.436 151.54" fill="black"/>
<path d="M274.494 144.136C276.176 143.281 277.979 142.103 277.486 141.127C276.281 138.756 274.712 136.804 273.548 135.594C273.322 136.15 272.74 136.755 271.244 137.408C268.875 138.441 266.821 138.788 265.794 138.546L269.756 143.87C270.508 144.394 270.823 146.015 274.502 144.144" fill="black"/>
<path d="M282.304 141.313C284.568 140.764 285.951 139.965 285.126 138.586C284.681 137.828 282.49 134.384 281.52 132.988C281.285 133.545 280.671 134.053 279.418 134.44C277.445 135.053 275.529 135.231 274.259 134.851L278.407 141.054C279.11 141.555 280.089 141.845 282.296 141.313" fill="black"/>
<path d="M290.478 139.965C292.556 139.74 294.618 139.498 294.246 138.223L290.422 132.222C290.196 133.02 288.675 133.416 287.269 133.488C285.231 133.593 283.501 133.722 282.741 132.843C282.595 132.819 282.45 132.795 282.304 132.762L286.5 139.248C286.856 139.965 288.522 140.183 290.478 139.965Z" fill="black"/>
<path d="M262.705 129.842L266.449 135.674C267.33 136.045 268.866 136.271 271.292 135.352C273.782 134.4 274.494 133.279 273.354 132.052C273.265 131.956 271.769 129.495 271.138 128.592C268.503 128.834 265.656 129.229 262.705 129.842Z" fill="black"/>
<path d="M252.121 133.012L257.539 140.998C258.476 141.377 259.794 141.127 262.115 139.982C265.713 138.199 266.279 136.4 265.559 135.521C265.292 135.198 262.107 131.012 261.387 130.133C258.355 130.826 255.234 131.762 252.121 133.004" fill="black"/>
<path d="M279.782 132.795C282.708 132.044 281.14 129.383 280.728 128.286C278.294 128.221 275.27 128.253 271.866 128.528L274.3 132.319C275.205 133.287 277.437 133.391 279.782 132.786" fill="black"/>
<path d="M114.687 149.943C115.746 149.379 117.605 146.209 119.263 142.934C118.834 142.853 118.438 142.764 118.09 142.684C117.67 142.587 117.355 142.305 117.201 141.893C117.023 141.433 117.104 140.732 117.355 139.893C116.433 141.127 115.544 142.095 114.808 142.434C114.064 142.772 113.102 142.91 112.083 142.91C110.814 142.91 109.447 142.692 108.275 142.369C106.254 145.789 104.677 148.951 104.709 149.919C107.321 150.508 112.689 151.008 114.687 149.943Z" fill="black"/>
<path d="M127.405 150.863C128.448 150.306 130.267 147.217 131.908 143.999C131.181 143.845 130.558 143.644 130.138 143.41C129.636 143.135 129.345 142.797 129.264 142.393C129.176 141.958 129.232 141.409 129.386 140.788C128.699 141.659 128.027 142.321 127.429 142.587C126.176 143.144 124.704 143.337 123.249 143.337C122.497 143.337 121.761 143.281 121.058 143.2C119.36 146.16 117.832 149.33 117.945 150.669C118.915 151.484 125.335 151.968 127.413 150.855" fill="black"/>
<path d="M139.29 152.637C140.147 152.42 141.95 149.693 143.947 145.225C143.236 144.773 142.783 144.265 142.637 143.757C142.484 143.2 142.549 142.466 142.759 141.627C141.991 142.668 141.231 143.458 140.527 143.765C139.46 144.216 137.811 144.41 136.105 144.41C135.466 144.41 134.827 144.386 134.204 144.329C131.714 148.467 130.825 151.04 130.914 151.855C131.431 152.5 136.016 153.46 139.298 152.646" fill="black"/>
<path d="M103.731 139.99C104.564 139.457 106.658 136.053 108.55 132.714C107.507 132.843 106.415 132.916 105.364 132.916C104.135 132.916 102.971 132.811 102.033 132.577C98.6291 136.11 95.7346 139.377 95.3384 140.353C96.155 141.119 102.041 141.054 103.731 139.99Z" fill="black"/>
<path d="M100.739 149.524C101.92 148.895 104.111 145.007 105.89 141.361C105.574 141.143 105.332 140.901 105.186 140.651C104.936 140.933 104.701 141.151 104.499 141.28C103.432 141.95 100.853 142.393 98.524 142.393C97.8044 142.393 97.1171 142.353 96.4946 142.264C93.98 145.507 91.8859 148.548 91.6676 149.564C93.4868 150.516 98.5887 150.677 100.731 149.532" fill="black"/>
<path d="M150.642 155.033C151.346 154.662 152.607 153.065 154.022 151.024C154.572 150.048 155.299 148.871 156.27 147.443C156.48 147.128 156.698 146.83 156.908 146.531C156.698 146.289 156.634 146.12 156.601 146.023C156.472 145.636 156.448 145.144 156.512 144.595C155.922 145.434 155.291 146.015 154.62 146.176C153.052 146.539 151.572 146.693 150.214 146.693C148.548 146.693 147.085 146.459 145.888 146.088C143.616 149.298 141.692 152.508 141.813 153.702C142.533 154.622 148.613 156.122 150.65 155.041" fill="black"/>
<path d="M125.812 132.02C125.068 132.432 123.88 132.762 122.529 132.988C120.298 136.634 118.454 140.248 118.551 141.248C120.282 141.643 124.26 142.353 126.831 141.208C128.036 140.659 130.105 137.247 131.828 133.908C130.405 133.779 129.103 133.488 128.302 133.109C127.607 132.778 127.203 132.351 127.106 131.843C127.065 131.665 127.001 131.359 127.041 130.794C126.58 131.383 126.16 131.81 125.796 132.028" fill="black"/>
<path d="M137.77 133.117L137.73 133.141C136.962 133.577 135.878 133.827 134.706 133.924C132.571 137.078 130.542 140.643 130.688 141.99C131.52 142.716 137.447 143.426 139.961 142.361C141.134 141.853 142.913 138.876 144.457 135.771C142.751 135.537 141.207 135.061 140.341 134.48C139.767 134.093 139.436 133.641 139.355 133.141C139.307 132.899 139.218 132.423 139.412 131.383C138.765 132.23 138.199 132.843 137.762 133.125" fill="black"/>
<path d="M149.462 135.602C148.71 135.803 147.869 135.9 146.996 135.916C145.217 138.998 143.737 142.184 144.053 143.337C144.263 144.023 148.079 146.128 154.289 144.7C155.024 144.523 156.342 142.482 157.644 138.449C155.356 138.328 152.833 137.667 151.515 136.868C150.691 136.376 150.286 135.803 150.311 135.182C150.311 135.142 150.311 135.093 150.319 135.045C150.012 135.335 149.729 135.521 149.462 135.602Z" fill="black"/>
<path d="M114.355 132.149C114.072 131.835 113.935 131.423 113.935 130.891C113.555 131.262 113.207 131.536 112.9 131.689C112.504 131.867 111.994 132.036 111.412 132.19C108.833 135.464 106.496 138.925 106.48 139.917C106.965 140.57 111.857 142.135 114.218 141.062C115.447 140.49 117.832 136.731 119.756 133.27C119.489 133.279 119.222 133.287 118.964 133.287C116.886 133.287 115.018 132.956 114.363 132.157" fill="black"/>
<path d="M140.81 132.875C141.077 133.666 145.71 135.037 149.066 134.142C149.381 134.045 149.931 133.456 150.844 131.802C151.499 129.253 152.639 126.503 153.642 124.357C154.507 122.502 155.324 120.961 155.857 120.001C156.003 119.735 156.132 119.509 156.245 119.308C153.019 119.138 149.777 119.009 146.608 118.913C145.387 120.84 140.309 130.318 140.802 132.875" fill="black"/>
<path d="M121.309 120.098C119.619 122.921 117.929 125.672 116.433 127.793C115.107 130.536 115.439 131.117 115.447 131.125L115.487 131.173C116.126 131.996 122.643 132.044 125.093 130.697C125.974 130.157 127.745 127.188 129.313 124.317C129.451 124.035 129.588 123.752 129.742 123.446C130.51 121.897 131.27 120.542 131.731 119.735C131.812 119.582 131.884 119.429 131.949 119.3C132.022 119.155 132.087 119.025 132.151 118.904C128.755 118.896 125.343 118.929 121.972 119.001C121.81 119.259 121.568 119.671 121.317 120.098" fill="black"/>
<path d="M133.938 118.888C132.781 120.663 128.076 129.189 128.545 131.488C129.159 132.27 134.77 133.061 136.994 131.827C137.859 131.246 139.67 128.519 141.425 125.672C141.594 125.301 141.772 124.906 141.966 124.494C143.034 122.252 144.19 120.114 144.925 118.848C141.263 118.816 137.568 118.824 133.929 118.888" fill="black"/>
<path d="M188.279 156.751C187.22 156.203 186.46 155.695 185.466 153.799C184.973 152.855 184.916 151.807 185.296 150.782C186.347 147.951 190.559 146.023 192.33 145.321C196.3 143.749 199.373 139.78 201.248 136.731C206.286 128.568 210.91 121.389 218.891 117.799L209.786 114.21C207.49 114.855 205.356 115.331 203.391 115.63C201.887 115.855 200.513 115.968 199.316 115.968C198.273 115.968 197.675 115.88 197.464 115.839L197.004 115.759L196.607 115.686L196.276 115.452L195.896 115.186C195.516 114.92 194.133 113.847 192.047 110.991C189.419 107.394 186.695 102.409 183.946 96.1819C183.735 95.706 183.533 95.222 183.347 94.738C180.081 94.3589 176.604 93.9717 172.731 93.6571C156.31 92.3343 133.849 99.0857 121.05 109.185C114.452 106.16 101.427 101.973 86.8891 107.055C86.1695 107.289 85.4418 107.547 84.706 107.83C83.752 108.184 83.2426 108.426 83.2426 108.426C80.2995 109.693 77.3241 111.371 74.4538 113.589C74.4538 113.589 74.4376 113.597 74.4296 113.605C70.4677 116.662 67.6298 121.147 63.6841 126.148C52.5021 140.32 37.2935 145.289 32.4423 145.749C38.1425 147.209 53.9251 146.668 60.7977 140.449C60.7977 140.449 55.1137 148.435 45.5972 149.669C45.5972 149.669 47.4649 151.782 51.645 150.427C51.645 150.427 40.5115 158.881 29.1597 161.438C29.1597 161.438 58.0567 163.019 71.3895 149.129L66.3038 158.477C66.3038 158.477 84.2694 148.629 86.2423 132.883L88.7811 137.868C88.7811 137.868 90.5598 112.677 115.269 114.589C114.347 115.549 113.417 116.565 112.73 117.638C153.294 115.88 176.612 118.872 179.669 119.074L180.703 119.106C180.792 118.324 180.873 117.541 180.93 116.751C165.697 113.782 136.258 114.944 136.258 114.944C136.258 114.944 138.385 113.984 156.019 113.444C172.432 112.935 180.049 114.855 181.035 115.073C181.067 114.323 181.108 112.952 181.116 112.193C171.672 110.33 153.254 111.048 153.254 111.048C153.254 111.048 154.887 110.257 165.851 109.919C176.159 109.604 180.566 110.483 181.108 110.596C181.108 110.064 180.995 107.854 180.97 107.321C181.237 107.023 182.49 112.298 182.126 118.533C181.423 126.729 180.226 139.481 168.753 157.227L166.57 156.816C166.02 157.647 165.438 158.34 164.84 158.808C164.266 159.26 163.401 159.429 162.414 159.429C160.207 159.429 157.377 158.558 155.776 157.913C152.696 156.663 152.558 155.84 152.51 155.525C152.51 155.477 152.494 155.42 152.494 155.364C152.057 155.824 151.661 156.162 151.321 156.348C150.626 156.719 149.615 156.872 148.491 156.872C146.139 156.872 143.276 156.195 141.74 155.404C140.891 154.969 140.455 154.525 140.366 153.985C140.349 153.904 140.349 153.815 140.341 153.726C140.107 153.888 139.872 154.017 139.638 154.073C138.7 154.307 137.552 154.42 136.363 154.42C133.938 154.42 131.383 153.96 130.235 153.186C129.79 152.888 129.531 152.525 129.458 152.121C129.426 151.92 129.361 151.549 129.515 150.823C129.006 151.46 128.512 151.944 128.076 152.178C127.033 152.734 125.117 152.984 123.152 152.984C120.88 152.984 118.551 152.654 117.419 152.073C116.878 151.799 116.57 151.436 116.498 151.008C116.465 150.798 116.457 150.556 116.481 150.29C116.085 150.734 115.713 151.073 115.366 151.258C114.242 151.855 112.552 152.057 110.806 152.057C108.024 152.057 105.122 151.54 104.2 151.323C103.804 151.226 103.504 150.96 103.359 150.573C103.189 150.129 103.278 149.427 103.537 148.564C102.777 149.661 102.041 150.508 101.418 150.839C100.198 151.492 98.1843 151.807 96.1792 151.807C94.174 151.807 92.3629 151.516 91.1582 150.944C90.0747 152.783 88.8296 154.557 87.3257 155.88C112.221 153.807 143.317 158.929 167.257 164.995C178.399 154.17 190.179 130.988 184.851 107.942C183.792 103.345 184.512 104.74 184.374 104.329C190.98 124.091 184.706 147.79 175.238 159.276C175.238 159.276 179.596 163.099 194.157 162.543C192.977 161.051 191.788 159.607 190.657 158.502C189.492 157.356 188.853 157.026 188.288 156.727M53.2136 155.227C65.2203 150.226 72.5295 137.9 72.5295 137.9C68.9881 151.67 53.2136 155.227 53.2136 155.227ZM71.0499 123.631C62.4956 139.272 53.8523 140.724 53.8523 140.724C60.0376 137.82 63.8863 132.778 70.5405 121.792C77.1948 110.806 89.7594 107.967 89.7594 107.967C88.7245 108.193 77.308 112.177 71.0499 123.631ZM78.2701 128.681C86.9133 107.047 104.111 109.983 104.111 109.983C87.4227 112.814 78.2701 128.681 78.2701 128.681Z" fill="black"/>
<path d="M105.817 124.204C101.58 128.552 101.265 129.673 101.257 129.915L101.297 130.657C102.518 131.794 109.496 131.577 112.277 130.31C113.967 129.479 118.543 121.816 120.047 119.308C120.104 119.211 120.161 119.114 120.217 119.026C117.492 119.05 114.347 119.114 111.622 119.195C110.959 119.703 108.227 121.728 105.817 124.196" fill="black"/>
<path d="M167.421 150.565C167.338 150.573 167.371 150.581 167.413 150.59C167.413 150.59 167.413 150.573 167.421 150.565Z" fill="black"/>
<path d="M168.98 148.967C170.508 148.371 171.834 145.055 172.747 141.643C172.723 141.643 171.987 141.643 171.955 141.643C169.424 141.643 165.357 140.393 163.522 139.11C162.778 138.586 162.39 138.062 162.333 137.497C162.309 137.336 162.309 137.15 162.309 136.965C162.034 137.328 161.792 137.602 161.582 137.755L161.525 137.796C161.258 137.965 160.943 138.086 160.595 138.191C158.93 141.304 157.628 144.37 157.984 145.491C158.622 146.507 166.78 149.806 168.98 148.967Z" fill="black"/>
<path d="M151.79 135.182C151.895 135.344 152.453 135.811 153.981 136.279C156.601 137.086 159.617 137.191 160.741 136.521C161.339 136.037 162.471 134.053 163.716 131.641C165.333 127.374 167.928 122.3 169.198 120.026C165.414 119.768 161.638 119.55 157.935 119.397C156.884 121.139 151.968 130.084 151.79 135.19" fill="black"/>
<path d="M160.506 157.76C162.989 158.203 163.191 157.776 163.369 157.639C164.816 156.501 166.247 153.565 167.395 150.605C165.018 150.605 161.557 149.258 159.779 148.403C159.051 148.048 158.493 147.741 158.065 147.467C155.793 150.726 153.844 154.017 153.957 155.243C154.394 155.791 157.402 157.211 160.514 157.768" fill="black"/>
<path d="M179.879 120.631C177.211 120.461 173.435 120.243 170.807 120.122C169.449 122.3 163.393 134.319 163.797 137.32C164.161 138.441 171.268 140.659 173.33 140.046C174.057 139.812 177.243 137.755 179.879 120.631Z" fill="black"/>
<path d="M409.495 144.539L398.685 143.636C398.822 142.91 398.442 142.176 397.739 141.917C396.955 141.627 396.081 142.047 395.782 142.845L395.386 143.902L386.913 139.038L386.225 140.877L371.381 134.94L370.847 139.74L384.73 144.91L384.002 146.862L393.551 148.83L393.122 149.984C392.823 150.782 393.219 151.67 393.995 151.96C394.691 152.218 395.467 151.912 395.831 151.274L404.611 157.622L431.819 160.252L409.487 144.531L409.495 144.539ZM396.599 149.322L397.909 145.789C401.078 147.838 410.57 152.557 410.57 152.557C410.57 152.557 400.334 149.855 396.599 149.314" fill="black"/>
<path d="M342.176 123.163L341.554 128.019L345.039 129.415L344.626 124.236L342.176 123.163Z" fill="black"/>
<path d="M346.801 130.117L347.513 130.399L349.914 126.35L346.219 124.874L346.801 130.117Z" fill="black"/>
<path d="M358.856 134.94L360.829 135.723L363.222 131.673L358.468 129.77L358.856 134.94Z" fill="black"/>
<path d="M349.914 126.35L346.801 130.117L353.471 132.786L352.622 127.43L349.914 126.35Z" fill="black"/>
<path d="M367.855 138.538L369.108 139.038L369.779 134.295L366.78 133.093L367.855 138.538Z" fill="black"/>
<path d="M354.418 128.148L354.975 133.383L357.506 134.4L356.714 129.068L354.418 128.148Z" fill="black"/>
<path d="M362.074 136.223L365.3 137.513L364.678 132.351L362.074 136.223Z" fill="black"/>
<path d="M303.229 181.515C304.062 171.319 308.856 161.768 317.605 152.871C316.853 148.943 314.856 144.595 310.296 141.684C308.185 141.433 302.873 140.627 294.085 142.619C294.085 142.619 282.288 142.03 275.359 146.176C264.945 152.412 263.538 156.404 263.538 156.404C263.538 156.404 246.082 155.469 240.867 157.663C244.505 163.269 251.006 167.552 260.021 164.358C280.388 157.147 275.367 166.221 297.594 154.202C296.825 161.849 293.769 168.262 288.352 173.4C286.04 173.529 283.962 172.981 282.207 171.537C280 175.441 280.032 179.022 281.803 182.337C279.482 182.708 278.092 182.063 277.534 180.506C274.55 179.522 271.567 178.538 268.583 177.554C264.088 184.055 264.759 191.444 266.99 195.881C271.057 194.953 274.89 194.235 278.795 193.453C278.698 191.92 278.844 189.766 279.83 187.282C279.83 187.282 280.525 190.654 281.722 192.848C282.765 192.63 283.816 192.404 284.891 192.154C286.395 187.798 289.031 185.128 294.553 186.814C299.089 185.935 302.057 184.201 303.237 181.507M309.487 153.468C310.708 151.678 308.396 149.395 308.396 149.395C308.396 149.395 308.185 147.765 310.061 148.661C310.061 148.661 312.511 151.266 312.268 152.573C312.026 153.88 306.067 161.139 304.515 164.188C304.515 164.188 308.274 155.259 309.495 153.468" fill="black"/>
<path d="M83.3961 204.011C85.8621 202.084 87.7379 199.962 88.3605 197.445C85.9025 185.878 86.5979 176.844 94.9339 173.957C119.756 174.804 137.956 169.076 146.971 162.285C139.5 160.865 130.267 159.76 122.723 159.244C113.005 158.582 105.938 157.34 96.0577 157.953C92.0717 161.123 84.4391 162.93 79.216 163.632C78.4236 163.737 77.89 164.495 78.0517 165.277C79.2968 171.295 79.1917 176.272 75.7878 181.555C72.0523 182.531 67.5407 182.515 61.129 180.079C62.1316 182.652 64.6542 184.693 69.3761 185.967C67.7671 186.362 66.0934 186.274 64.3551 185.725C64.3146 188.758 66.9262 191.275 69.6267 193.767C65.956 193.404 62.261 193.178 58.3962 193.598C54.4424 199.865 53.2215 205.971 55.8412 213.352C62.261 211.263 66.053 210.029 72.4728 207.932C73.7745 203.503 77.4695 202.261 83.4042 204.011M99.1949 169.197C104.709 170.133 124.518 165.334 124.518 165.334C114.792 170.141 99.3566 170.746 99.3566 170.746C99.3566 170.746 93.6807 168.262 99.1949 169.197ZM61.8729 197.615C59.3907 201.309 61.3635 208.311 61.3635 208.311L59.706 208.956C58.0889 204.81 59.52 201.172 60.4822 198.825C61.129 197.228 64.3632 193.929 61.881 197.623" fill="black"/>
<path d="M221.227 137.36L222.19 136.618L219.521 134.263L220.475 137.949L221.227 137.36Z" fill="black"/>
<path d="M219.602 138.626L218.228 133.972L214.072 132.101L216.692 140.885L219.602 138.626Z" fill="black"/>
<path d="M214.363 142.7L215.276 141.99L214.306 137.965L207.296 131.238C206.989 131.625 206.69 132.028 206.383 132.44C206.334 132.504 206.277 132.577 206.229 132.649C205.93 133.061 205.631 133.472 205.323 133.9L214.209 142.821L214.355 142.708L214.363 142.7Z" fill="black"/>
<path d="M213.489 124.519L216.19 125.995L215.389 122.897C214.767 123.397 214.128 123.938 213.489 124.519Z" fill="black"/>
<path d="M230.235 130.367L220.678 121.155L225.197 130.915L227.736 132.303L230.235 130.367Z" fill="black"/>
<path d="M201.014 154.154C200.99 154.089 200.974 154.025 200.966 153.96C200.966 153.944 200.966 153.928 200.966 153.904C200.966 153.856 200.966 153.807 200.966 153.751C200.966 153.735 200.966 153.718 200.966 153.71C200.974 153.646 200.99 153.581 201.006 153.525C201.006 153.509 201.014 153.501 201.022 153.484C201.038 153.436 201.063 153.38 201.087 153.331C201.095 153.315 201.103 153.299 201.111 153.283C201.143 153.226 201.176 153.162 201.208 153.105C201.249 153.041 201.289 152.984 201.337 152.92C201.346 152.912 201.354 152.896 201.37 152.888C201.41 152.839 201.459 152.783 201.499 152.734C201.507 152.734 201.515 152.718 201.523 152.71C201.58 152.654 201.637 152.597 201.693 152.541L196.373 150.371L191.457 156.759C191.53 156.832 191.611 156.897 191.692 156.977C191.772 157.058 191.853 157.13 191.942 157.219C195.928 161.139 200.133 168.326 203.771 170.174C204.022 170.303 204.281 170.375 204.523 170.375C205.396 170.375 206.059 169.375 205.332 166.14C204.62 162.987 202.025 156.905 201.014 154.146" fill="black"/>
<path d="M208.986 129.165C208.663 129.544 208.339 129.923 208.024 130.326L213.797 135.868L212.698 131.31L208.986 129.165Z" fill="black"/>
<path d="M202.081 138.844C202.081 138.844 202.081 138.852 202.073 138.852C201.612 139.538 201.119 140.232 200.578 140.909L204.709 142.918L202.526 138.167C202.381 138.393 202.235 138.618 202.081 138.844Z" fill="black"/>
<path d="M203.011 151.516L203.359 151.25L196.551 144.975C195.613 145.701 194.611 146.314 193.551 146.79L202.801 151.67L203.003 151.508L203.011 151.516Z" fill="black"/>
<path d="M219.02 120.308C219.02 120.308 218.963 120.34 218.939 120.356C218.761 120.469 218.583 120.582 218.405 120.695C218.389 120.711 218.365 120.719 218.349 120.735C217.702 121.163 217.047 121.623 216.376 122.131L217.573 126.753L223.507 129.996L219.02 120.308Z" fill="black"/>
<path d="M226.119 133.561L212.592 125.349C211.533 126.358 210.466 127.471 209.382 128.697L224.033 135.174L226.111 133.561H226.119Z" fill="black"/>
<path d="M213.255 143.555L209.698 140.474L211.525 144.902L213.255 143.555Z" fill="black"/>
<path d="M187.64 153.872C187.64 153.872 187.64 153.888 187.657 153.888C187.697 153.952 187.746 154.009 187.786 154.065C187.786 154.065 187.786 154.073 187.794 154.081C187.932 154.259 188.069 154.404 188.198 154.525C188.198 154.525 188.206 154.533 188.215 154.541C188.255 154.581 188.295 154.614 188.336 154.646C188.336 154.646 188.336 154.646 188.344 154.646C188.433 154.719 188.522 154.775 188.619 154.84C188.619 154.84 188.635 154.848 188.643 154.856C188.683 154.88 188.716 154.904 188.756 154.92C188.764 154.92 188.78 154.936 188.789 154.944C188.821 154.961 188.861 154.985 188.894 155.001C188.91 155.009 188.926 155.017 188.942 155.025C188.942 155.025 188.958 155.025 188.966 155.033C189.217 155.17 189.492 155.307 189.824 155.501L194.141 150.919L187.341 153.38C187.446 153.565 187.543 153.718 187.64 153.864" fill="black"/>
<path d="M210.789 145.475L207.789 138.812L204.135 135.642C203.836 136.094 203.545 136.545 203.245 137.013L206.318 143.7L210.255 145.886L210.781 145.475H210.789Z" fill="black"/>
<path d="M208.929 146.919L200.141 141.982L197.99 143.894L207.304 148.185L208.929 146.919Z" fill="black"/>
<path d="M205.024 149.951L206.278 148.975L198.896 145.58L204.272 150.54L205.024 149.951Z" fill="black"/>
<path d="M191.255 147.822C190.988 147.959 190.721 148.096 190.463 148.241C190.447 148.241 190.438 148.258 190.422 148.266C190.034 148.483 189.67 148.717 189.315 148.951C189.307 148.951 189.29 148.967 189.282 148.975C188.935 149.217 188.611 149.467 188.312 149.726L188.296 149.742C188.005 150 187.746 150.266 187.528 150.54C187.528 150.54 187.528 150.548 187.52 150.556C187.398 150.71 187.293 150.871 187.204 151.032C187.14 151.153 187.083 151.266 187.035 151.387C187.035 151.387 187.035 151.395 187.035 151.403C186.962 151.589 186.913 151.774 186.897 151.968L193.98 149.056L191.255 147.83V147.822Z" fill="black"/>
<path d="M235.441 126.487C240.204 123.752 238.578 121.478 239.347 119.792C240.147 118.041 238.401 114.291 238.401 114.291L230.566 104.167C227.364 107.063 223.087 109.556 219.926 110.669C217.282 111.596 214.88 112.629 212.56 113.379C212.56 113.379 215.479 116.912 224.938 112.242C226.733 111.354 226.434 112.556 224.284 113.799C223.313 114.355 223.758 114.912 223.548 115.009L222.092 115.678C221.526 115.936 221.535 116.735 222.101 116.985L223.548 117.63C223.338 117.735 221.51 118.905 221.292 119.009C221.235 119.034 221.187 119.066 221.13 119.09C220.961 119.179 220.783 119.276 220.613 119.372C220.581 119.388 220.556 119.405 220.524 119.421L232.167 128.85C232.434 128.721 235.199 126.616 235.433 126.479" fill="black"/>
<path d="M261.614 153.823L256.051 145.692C245.039 143.394 235.369 142.7 224.09 144.241C233.267 139.933 246.486 141.046 254.636 142.603C256.674 141.942 252.453 137.683 252.13 134.682C252.13 134.682 251.483 133.279 251.475 133.279L236.25 131.657L237.835 130.713H250.537C250.537 130.713 264.945 124.365 286.501 128.213L286.865 128.737C286.865 128.737 284.819 128.439 281.439 128.31L282.587 131.625C283.404 132.77 284.771 132.198 287.026 132.246C289.428 132.294 291.061 131.294 290.778 129.979C290.778 129.979 292.152 129.794 292.524 127.898C293.292 124.043 291.789 125.309 291.942 123.785C291.942 123.785 264.137 124.349 237.665 96.198C237.601 96.2867 237.536 96.3835 237.463 96.4722C235.563 99.0534 234.148 100.772 232.014 102.716L239.25 112.25C239.25 112.25 242.452 116.92 241.393 119.243C241.368 119.332 241.368 119.63 241.376 119.848C241.425 122.187 241.546 125.559 235.409 128.665L203.48 153.468L203.432 153.509L203.383 153.541C203.149 153.694 202.987 153.839 202.882 153.944C203.141 154.63 203.472 155.477 203.852 156.437C204.434 157.913 205.081 159.55 205.655 161.131L212.051 160.308C213.159 160.091 214.299 159.857 215.471 159.599C224.155 157.695 243.058 152.299 261.598 153.823" fill="black"/>
<path d="M61.2266 16.2615L58.3159 26.4411L56.9333 28.7804L61.8815 30.6195L62.0917 27.9092L66.8864 18.2458L67.2583 18.3265L105.34 33.5636C106.594 32.394 108.688 31.1196 110.426 30.4339C104.702 28.2318 68.6409 13.8659 68.6409 13.8659L68.4388 13.7529L70.8805 4.2267L72.5865 1.83909L67.6383 0.00805664L67.2259 2.95224L63.2075 11.3734L49.236 6.50945L47.0934 5.25918L45.4683 9.62302L48.1769 10.0989L61.2266 16.2777V16.2615Z" fill="black"/>
<path d="M105.785 35.6044C102.478 38.6534 98.9362 42.4446 101.54 41.4686C106.165 39.7182 101.653 43.477 101.103 45.0016C100.707 46.1066 100.852 46.5503 102.073 46.5503C106.617 46.5503 111.549 45.9373 114.743 42.4365C115.487 41.6218 116.304 40.8071 117.169 39.9924C125.699 33.7088 140.786 23.747 143.155 22.1418C142.039 21.6659 136.355 24.2068 135.563 24.4165C125.068 27.2639 128.254 25.2312 129.232 22.6258C129.588 21.674 128.181 22.3758 127.599 22.6258C126.831 22.9565 114.428 28.4658 106.359 35.1688C106.173 35.3221 105.971 35.4592 105.785 35.6044Z" fill="black"/>
<path d="M132.911 30.2646C132.418 29.9742 127.963 33.7814 127.526 34.1283C126.815 34.6849 121.858 39.1536 119.813 41.0088C116.934 44.0901 114.703 47.5989 113.643 51.8498C113.296 53.2534 112.762 57.1736 113.732 55.9636C123.451 43.8804 116.692 55.5038 117.969 55.1409C122.271 52.3903 124.874 49.309 127.575 45.3565C128.472 44.1788 129.119 43.3319 129.248 43.227C136.468 37.1612 131.027 36.4514 131.407 34.3138C131.811 32.0311 133.525 30.6356 132.903 30.2726" fill="black"/>
<path d="M141.385 35.7011C139.751 36.6691 139.404 37.5564 136 38.2259C135.474 38.3307 131.836 43.0898 130.3 45.058C130.049 45.4694 129.879 45.7517 129.823 45.8162C126.411 49.9461 124.834 54.5681 124.979 59.6417C125.012 60.6662 126.047 61.6986 126.677 60.6904C130.106 55.1327 128.683 60.3919 129.111 60.1418C131.779 58.5689 133.582 57.3106 134.318 53.6405C134.747 51.4787 135.935 49.5509 137.318 47.7682C138.53 45.1467 141.522 38.8147 141.821 37.75C142.031 37.024 142.048 35.3301 141.393 35.7092" fill="black"/>
<path d="M146.535 18.633C153.294 17.5199 139.889 22.0612 158.809 17.6328C159.043 17.5763 159.431 17.5441 159.674 17.5602L161.145 17.6489C161.347 17.6651 161.388 17.9474 161.194 18.0039C157.612 19.1573 149.616 20.7302 145.654 22.5694C141.425 24.5294 139.436 25.8039 136.356 29.4095C133.744 32.4666 136.283 30.5307 134.221 33.9428C132.992 35.9754 132.863 38.4034 138.571 35.0398C140.803 33.725 142.832 33.4104 144.514 31.3777C147.457 27.8124 147.085 30.1355 149.51 28.3286C155.655 23.747 158.396 23.7954 162.188 22.6258H164.468C155.405 26.062 151.766 29.4821 150.529 30.0871C143.139 33.6766 141.773 43.348 140.026 48.8088C139.743 50.043 139.784 51.269 140.673 52.1321C141.215 52.6564 142.185 51.4626 143.18 50.0188C143.18 50.0188 143.681 49.559 143.964 49.0105C146.115 46.1712 150.335 40.2667 151.742 38.7744C159.779 30.2565 163.013 29.1191 166.312 28.5948C166.247 29.6515 150.19 39.7343 156.294 37.2257C158.372 36.3707 156.157 38.7744 152.122 41.6944C150.95 42.5414 151.661 49.0831 151.896 52.1563L151.96 53.3905C152.324 54.6891 152.858 55.7377 153.48 55.5442C153.909 55.407 154.248 54.9714 154.54 54.3826C157.062 51.5352 161.695 44.2675 163.369 41.9203C163.692 41.4686 167.945 35.2818 168.818 35.3059C168.891 35.9916 164.452 42.0009 164.25 42.5736C163.409 44.8967 162.107 47.0181 160.951 49.196C160.765 49.5429 159.997 54.4552 159.666 56.3588C159.682 58.5609 160.215 60.7227 161.291 62.8522C161.638 63.5459 161.752 64.6429 162.77 64.5703C163.822 64.4977 164.177 63.4249 164.622 62.594C165.261 61.376 165.746 60.1177 166.134 58.8513L166.376 57.9479C166.579 46.9375 170.379 43.2673 171.406 41.1782L171.955 41.1943C171.891 42.2026 169.392 48.2039 169.247 49.2121C169.061 50.535 168.859 57.2945 168.681 59.8354C168.616 66.4497 170.646 72.6285 175.222 76.3228C176.144 77.0649 176.588 76.7826 176.896 75.5484C177.405 73.4754 175.909 68.2082 175.626 63.2958C175.497 61.005 176.58 54.9069 176.451 54.3745C175.23 49.1154 173.694 56.8428 174.276 47.9861C174.478 44.8725 175.966 41.8557 176.54 40.6297L175.933 44.5902C176.014 53.0355 177.89 44.7273 178.052 45.292C179.006 48.6394 175.917 58.0286 179.653 51.4868C179.782 51.261 176.863 61.7713 177.267 61.86C178.424 62.1262 181.181 57.0848 182.264 54.9956C177.922 63.9008 180.008 72.1042 182.2 71.5153C182.442 70.4183 183.364 66.4094 183.598 65.5866L183.752 64.901L189.452 49.2202C187.309 47.0585 183.566 41.7267 183.364 30.7808C183.113 17.3344 177.858 15.2533 173.152 13.5674C168.576 11.9219 160.264 11.8251 152.203 13.8497C151.702 13.9788 151.443 13.277 151.912 13.0431C156.367 10.833 164.816 9.4859 171.697 10.2845C178.925 11.1234 183.784 14.9145 185.579 23.2953C186.841 29.2079 187.584 41.0572 191.287 44.6547L192.347 42.0251L192.67 41.2266L193.487 40.9604L194.433 40.6539C195.985 40.1538 200.278 39.2261 201.928 38.9196C189.824 29.1514 197.4 19.48 184.261 10.3409C174.138 3.2991 159.294 7.29995 152.251 9.85695C151.702 9.88922 139.25 14.8258 133.825 20.1979C127.437 26.5218 140.843 19.5445 146.519 18.6088M163.991 17.0601L167.088 16.5519C167.088 16.5519 174.607 15.2936 177.704 24.5214C179.046 28.5222 180.639 42.6704 182.264 45.3968C183.889 48.1232 180.485 46.3648 180.485 46.3648C180.485 46.3648 179.709 36.1045 178.901 37.0886C176.661 39.815 176.257 39.5327 178.003 34.7413C178.674 32.9022 178.634 30.6356 177.623 31.0873C170.54 34.3138 169.522 33.846 175.941 28.9901C177.728 27.643 178.027 25.5297 175.157 25.1828C174.122 25.0538 170.888 26.6428 169.57 26.1992C168.527 25.8523 174.801 22.2225 173.419 21.1174C172.036 20.0204 166.296 21.6256 167.201 20.9884C174.114 16.1648 165.819 18.7137 164.485 18.0119C163.15 17.3102 163.999 17.052 163.999 17.052" fill="black"/>
<path d="M72.4811 75.5404C72.8287 75.2339 74.1305 74.5644 73.7262 73.7819C72.9985 72.3623 73.8232 71.4185 74.8582 69.9666C78.1489 65.3366 85.6036 60.7227 90.285 57.7785C95.5082 54.5036 102.073 49.8736 102.656 48.583C100.02 48.8572 98.3219 47.0423 98.8393 42.7995C94.7562 46.5422 84.7951 53.7373 75.6505 61.5293C64.3068 71.2007 33.8897 106.797 3.52109 104.514C2.38106 104.426 0.432489 103.917 0.206099 104.845C-0.117315 106.192 1.77466 106.507 2.89852 106.958C7.80633 108.918 14.5899 108.297 18.6326 106.958C34.9004 101.57 39.3069 99.6504 53.8201 90.2855C60.4743 85.9862 66.506 80.7996 72.473 75.5323" fill="black"/>
<path d="M111.315 52.9146C111.137 52.9871 110.935 53.0194 110.814 53.1323C104.596 58.6658 101.2 61.2308 95.0069 66.7966C94.0286 67.6758 91.4736 70.7087 90.6247 71.7412L89.5493 72.7656C89.2097 73.1931 87.7786 74.3546 88.0535 74.9193C88.3284 75.4839 89.9698 74.7579 90.4225 74.4837C94.2954 72.1364 94.158 73.9674 94.5137 73.8707C98.799 72.7333 100.23 71.4669 103.933 68.8696C108.016 66.0061 113.611 61.0937 116.975 56.8912C113.239 58.1657 111.35 56.8401 111.307 52.9146" fill="black"/>
<path d="M108.396 69.1196C106.545 71.4588 104.79 73.919 103.844 76.7583C103.593 77.5166 103.254 78.4442 103.901 78.9846C104.548 79.5251 105.267 78.8233 105.906 78.4845C112.633 74.8466 117.961 69.5633 122.546 63.4168C122.853 63.0054 123.192 62.5779 123.168 62.0697C123.063 59.5046 122.934 56.9315 122.812 54.1083C122.012 54.7133 121.446 55.0924 120.928 55.5441C116.239 59.5853 112.229 64.2718 108.404 69.1196" fill="black"/>
<path d="M112.221 46.5583C108.986 47.7037 105.51 48.0587 102.769 50.7125C101.912 51.5433 100.853 52.1563 99.85 52.8258C94.3358 56.5121 88.7893 60.1177 83.3236 63.8685C80.615 65.7237 77.9872 67.7403 75.885 70.3538C75.4565 70.8861 74.8259 71.5072 75.2301 72.1525C75.6021 72.7414 76.5076 72.6042 77.0898 72.451C81.1001 71.3943 85.9109 69.3858 88.3284 67.9258C98.1602 62.3359 104.24 55.5603 111.921 49.3493C112.56 48.833 112.779 48.1151 112.956 47.3811C113.11 46.7439 113.134 46.2438 112.229 46.5664" fill="black"/>
<path d="M104.903 88.7609C110.078 85.5828 111.379 83.7195 115.398 79.1863C119.036 75.0725 123.152 70.1441 126.265 65.627C126.548 65.2075 126.96 63.8927 126.345 63.4733C125.731 63.0538 125.092 63.4168 124.72 64.1831C124.639 64.3525 124.51 64.4977 124.413 64.659C120.427 71.354 112.722 76.7503 106.876 80.0252C102.688 81.5094 103.739 83.3324 100.06 87.5187C99.1787 88.519 96.0173 91.2131 96.5995 91.8826C97.2948 92.6811 101.313 90.9711 104.911 88.7609" fill="black"/>
<path d="M146.219 88.7609C147.23 88.7851 147.626 87.8252 148.063 87.067C151.733 80.6705 154.402 73.9916 155.412 66.853C155.485 66.3609 155.833 65.7721 155.259 65.2962C154.62 66.0383 154.03 66.7723 153.391 67.466C150.302 70.878 149.445 70.8296 147.384 67.1998C147.359 67.1514 147.295 67.1272 146.955 66.8772C145.16 72.1041 143.81 77.1778 143.963 82.3966C144.012 84.0341 144.238 85.6393 144.885 87.1073C145.184 87.7849 145.298 88.7367 146.211 88.7609" fill="black"/>
<path d="M146.001 60.9082C145.904 60.5452 145.475 59.5692 145.217 59.8434C142.823 62.3923 140.422 65.5301 137.592 67.2805C137.196 67.5225 136.897 68.0145 136.638 68.442C133.485 73.7577 130.857 79.275 129.143 85.1311C128.723 86.5749 128.383 88.0269 128.488 89.4949C128.528 90.0918 128.537 90.7613 129.224 90.9468C129.838 91.1082 130.218 90.5758 130.639 90.2048C133.501 87.6397 135.765 84.5906 137.835 81.3641C141.295 75.9678 143.551 70.1037 145.758 64.2153C146.187 63.0699 146.3 62.0536 145.985 60.9082" fill="black"/>
<path d="M166.724 60.4807C165.721 61.6261 164.913 65.6188 163.959 66.5142C162.536 67.829 161.703 67.7161 160.757 66.2319C159.949 64.9816 158.72 61.8196 157.943 60.5371C156.359 59.5127 157.822 72.4913 159.399 77.1052C160.037 78.9765 160.757 80.8802 162.35 82.1385C163.619 83.1549 164.226 83.0097 164.881 81.3561C166.15 78.178 166.764 74.895 167.039 71.5879C167.258 68.8695 167.945 59.5611 166.724 60.4726" fill="black"/>
<path d="M31.3266 106.483C30.8981 106.829 30.1946 107.16 30.3968 107.757C30.6151 108.402 31.3508 108.007 31.836 107.894C37.4634 106.652 42.9695 104.627 48.1926 101.877C59.5768 95.8673 69.7886 87.8979 79.8872 79.7752C83.4286 76.9359 88.8943 73.0641 90.8914 68.4663C86.9619 70.6361 81.189 73.4109 77.0816 74.3627C76.4348 74.516 75.982 74.9596 75.5211 75.3871C64.5736 85.5345 53.0196 94.6171 39.8486 101.239C36.8893 102.724 33.9543 104.337 31.3185 106.474" fill="black"/>
<path d="M131.674 72.4429C132.992 70.4183 134.876 68.5711 132.887 65.9657C131.828 64.5783 132.402 62.2552 132.539 60.2145C131.31 60.5049 130.777 61.3921 130.227 62.2149C126.322 68.0145 122.424 73.8222 118.535 79.638C116.837 82.1789 115.309 84.8165 113.975 87.551C113.611 88.2931 112.73 89.2449 113.409 89.8821C113.983 90.4306 114.865 89.5595 115.544 89.1723C116.692 88.5189 117.864 87.8575 118.875 87.0186C123.904 82.8322 128.133 77.9279 131.69 72.451" fill="black"/>
<path d="M62.9083 98.876C64.3879 98.4404 65.8352 97.8677 67.242 97.166C71.6566 94.8913 75.8368 92.181 79.8875 89.2207C86.2264 84.5746 92.2824 79.517 98.023 74.0884C94.6352 75.7743 92.2338 76.476 88.8218 76.5728C87.989 76.5728 87.1482 76.8955 86.4771 77.4682C81.0599 81.8804 75.5942 86.2362 70.1932 90.6565C67.4927 92.8667 64.8649 95.1817 62.2291 97.4805C61.8329 97.8274 61.2104 98.271 61.5742 98.8599C61.8653 99.3277 62.4474 99.0051 62.9083 98.8599" fill="black"/>
<path d="M80.9703 95.2704C81.318 95.2058 81.6575 94.988 82.0052 94.8509C88.0692 92.431 93.1549 88.3415 98.1436 84.0744C99.8253 82.6467 101.677 81.348 101.2 78.7749C101.135 78.4119 101.402 77.936 101.531 77.5246C102.089 75.6775 105.348 71.0797 106.148 69.2648C104.838 68.4662 92.6455 82.3563 86.9615 87.3171C84.5683 89.4062 82.2235 91.5599 80.1779 94.0201C79.8707 94.3911 79.329 94.8348 79.6362 95.2946C79.9273 95.7301 80.5337 95.3672 80.9865 95.2784" fill="black"/>
<path d="M145.783 55.9152C146.551 54.5681 147.165 53.1807 147.699 51.753C147.699 51.753 151.079 45.9937 149.777 45.4049C148.427 44.7999 145.581 49.3896 144.756 50.6157C143.478 52.5112 141.401 54.2778 140.325 54.5036C138.951 54.794 138.563 51.39 138.304 49.1315C135.118 54.7698 134.253 59.2788 134.665 64.9817C134.787 66.6352 135.159 66.7482 136.549 65.8609C140.471 63.3281 143.487 59.9564 145.791 55.9071" fill="black"/>
<path d="M158.526 52.5757C158.097 52.3015 156.157 54.6891 156.157 54.6891C150.618 62.8844 152.842 53.7292 150.602 53.4711C149.462 53.342 150.367 47.7602 148.492 54.1164C147.715 56.746 147.918 60.158 148.387 62.7795C148.686 64.4089 148.451 66.8772 150.351 67.0466C152.219 67.2079 153.335 64.9655 154.281 63.3442C155.736 60.8517 156.48 59.6256 158.129 55.2618C158.129 55.2618 158.97 52.8581 158.534 52.5677" fill="black"/>
<path d="M194.077 42.7188L184.989 65.4011C184.439 67.0466 183.55 70.1279 183.024 74.0642C182.563 77.4843 182.482 80.856 182.774 84.0745C183.137 88.1318 184.108 91.9632 185.652 95.4559C188.344 101.562 191.004 106.434 193.551 109.919C195.516 112.605 196.737 113.532 196.963 113.686L197.343 113.952L197.804 114.032C197.893 114.049 198.386 114.129 199.324 114.129C200.197 114.129 201.451 114.057 203.124 113.807C205.218 113.492 207.523 112.96 210.005 112.234C210.062 112.218 210.118 112.201 210.175 112.185C210.676 112.032 211.194 111.871 211.711 111.709C211.913 111.645 212.107 111.588 212.301 111.524C212.835 111.346 213.377 111.161 213.926 110.967C214.129 110.895 214.331 110.83 214.533 110.758C215.099 110.556 215.673 110.338 216.255 110.12C216.449 110.048 216.643 109.975 216.845 109.903C217.621 109.604 218.414 109.29 219.222 108.959C219.643 108.789 220.055 108.604 220.467 108.418C220.605 108.354 220.742 108.289 220.88 108.225C221.155 108.096 221.422 107.967 221.696 107.83C221.858 107.749 222.02 107.66 222.19 107.571C222.432 107.442 222.667 107.313 222.909 107.184C223.087 107.087 223.257 106.991 223.427 106.886C223.653 106.757 223.879 106.62 224.106 106.482C224.284 106.378 224.453 106.265 224.631 106.16C224.85 106.023 225.068 105.878 225.286 105.732C225.464 105.619 225.634 105.498 225.812 105.385C226.03 105.232 226.248 105.079 226.459 104.926C226.628 104.805 226.79 104.692 226.96 104.571C227.203 104.393 227.445 104.2 227.68 104.014C227.817 103.909 227.946 103.804 228.084 103.7C228.464 103.393 228.844 103.079 229.216 102.756C231.666 100.643 233.946 98.1581 235.991 95.3672C236.59 94.5525 237.131 93.7701 237.616 93.0199C237.616 93.0199 237.649 92.9635 237.673 92.9312C237.754 92.8021 237.835 92.6731 237.916 92.544C237.988 92.423 238.061 92.3101 238.134 92.1972C238.215 92.0681 238.296 91.9471 238.368 91.8181C238.433 91.7051 238.498 91.6003 238.562 91.4954C238.635 91.3744 238.708 91.2453 238.781 91.1244C238.837 91.0276 238.894 90.9308 238.951 90.834C239.096 90.5839 239.234 90.3419 239.363 90.1161C239.403 90.0515 239.436 89.987 239.476 89.9225C239.541 89.8015 239.605 89.6886 239.662 89.5756C239.702 89.495 239.743 89.4224 239.791 89.3417C239.848 89.2369 239.905 89.132 239.961 89.0271C240.002 88.9545 240.042 88.8739 240.074 88.8013C240.123 88.7045 240.171 88.6077 240.22 88.519C240.252 88.4464 240.285 88.3818 240.317 88.3173C240.357 88.2286 240.406 88.1398 240.446 88.0592C240.479 87.9946 240.503 87.9382 240.535 87.8817C240.568 87.8091 240.608 87.7285 240.64 87.6559C240.689 87.551 240.737 87.4461 240.778 87.3574C240.778 87.3494 240.786 87.3413 240.794 87.3332C240.81 87.301 240.818 87.2768 240.834 87.2526C240.859 87.1961 240.883 87.1477 240.899 87.0993C240.907 87.0832 240.915 87.067 240.923 87.0509C240.931 87.0348 240.94 87.0106 240.948 86.9944C240.956 86.9702 240.964 86.9541 240.972 86.9299C240.996 86.8734 241.02 86.817 241.045 86.7686C241.045 86.7524 241.061 86.7363 241.069 86.7202C241.069 86.7041 241.077 86.696 241.085 86.6879C241.085 86.6718 241.093 86.6637 241.101 86.6476C241.109 86.6234 241.117 86.6073 241.126 86.5911C241.126 86.5831 241.125 86.575 241.134 86.5669C241.134 86.5669 241.134 86.5508 241.142 86.5508C241.15 86.5266 241.158 86.5105 241.158 86.5024L249.817 65.143L249.348 64.2638C247.036 59.9403 243.721 55.9717 239.5 52.479C235.547 49.2041 230.809 46.4051 225.796 44.3885C220.791 42.372 215.43 41.1056 210.304 40.7265C209.164 40.6458 208.032 40.5974 206.916 40.5974C202.704 40.5974 198.71 41.2024 195.015 42.3962L194.069 42.7027L194.077 42.7188ZM229.167 74.5805C227.17 74.5966 224.745 75.5404 222.602 76.3712C221.866 76.6616 221.171 76.9278 220.524 77.1456C218.212 78.0167 215.843 78.9282 213.433 79.88C214.5 82.2273 215.576 84.5262 216.643 86.7686C216.845 87.18 217.128 87.7688 217.435 88.4302C218.171 89.987 219.077 91.9229 219.667 92.8021C220.16 93.5604 220.589 94.1169 221.074 94.5928L221.486 94.9961L216.886 96.8111L216.861 96.2867C216.772 94.367 215.705 92.0036 214.767 89.9144C214.444 89.1965 214.137 88.519 213.886 87.8898C212.9 85.6232 211.857 83.3001 210.781 80.9448C208.453 81.8804 206.092 82.8484 203.715 83.8405C203.149 84.0906 202.526 84.3406 201.863 84.6068C199.688 85.486 197.23 86.4863 195.67 87.7527L195.29 88.0592L193.309 83.7276L193.842 83.6873C195.896 83.526 198.378 82.5741 200.577 81.7352C201.249 81.4771 201.879 81.2351 202.469 81.0254C204.871 80.1381 207.24 79.2347 209.568 78.3313C208.517 76.0727 207.434 73.7819 206.326 71.475C206.051 70.9184 205.76 70.3134 205.461 69.6682C204.467 67.5467 203.343 65.143 201.968 63.5943L201.863 63.4733L201.879 63.3119C201.895 63.1614 202.556 62.828 203.86 62.3117L206.059 61.4486L206.116 61.9326C206.35 63.9089 207.434 66.3368 208.388 68.4824C208.679 69.1358 208.954 69.7488 209.188 70.3215C210.207 72.6849 211.234 75.008 212.261 77.2907C214.678 76.3389 217.039 75.3871 219.335 74.4353C219.756 74.2498 220.362 74.0078 221.042 73.7255C222.634 73.0721 224.615 72.2655 225.505 71.7412C226.281 71.2975 226.839 70.9023 227.316 70.4506L227.696 70.0957L229.749 74.5886H229.167V74.5805ZM227.72 60.1822C228.06 60.3032 228.537 60.4888 229.078 60.6904C230.323 61.1744 231.884 61.7713 232.676 61.9165C233.364 62.0536 233.897 62.102 234.431 62.0697L235.029 62.0294L233.178 66.611L232.773 66.1593C231.738 64.9978 229.871 64.2315 228.221 63.562C227.647 63.3281 227.106 63.1103 226.62 62.8764C222.497 61.1179 218.074 59.3595 213.498 57.6494C213.045 57.4881 212.552 57.2945 212.026 57.0929C210.328 56.4314 208.396 55.6894 206.795 55.6652H206.245L208.024 51.261L208.42 51.6401C209.585 52.729 211.493 53.5276 213.174 54.2294C213.692 54.4472 214.177 54.6488 214.622 54.8505C219.101 56.7864 223.508 58.5771 227.712 60.1742M196.438 44.7515L196.963 44.6386L197.812 44.4531L198.233 44.3643C198.378 44.3321 198.516 44.2998 198.661 44.2837L199.51 44.1385C199.793 44.0901 200.076 44.0417 200.359 44.0094C201.499 43.8562 202.639 43.7594 203.787 43.719C204.361 43.7029 204.927 43.6706 205.501 43.6868C206.076 43.6948 206.641 43.6868 207.207 43.7352C207.773 43.7674 208.347 43.7836 208.905 43.8481C209.471 43.9046 210.037 43.953 210.595 44.0336C212.843 44.324 215.058 44.7999 217.217 45.4291C219.376 46.0583 221.478 46.8487 223.508 47.7925C222.966 47.6312 222.416 47.4779 221.866 47.3247C220.759 46.9052 219.635 46.5261 218.503 46.1954C216.344 45.5662 214.129 45.0903 211.881 44.7999C211.323 44.7112 210.757 44.6709 210.191 44.6144C209.625 44.5499 209.059 44.5337 208.493 44.4934C207.927 44.4531 207.353 44.4531 206.787 44.445C206.221 44.4289 205.647 44.4611 205.073 44.4773C203.933 44.5257 202.785 44.6225 201.645 44.7677C201.362 44.7999 201.079 44.8483 200.796 44.8967L199.947 45.0419C199.801 45.0661 199.664 45.0984 199.526 45.1306L199.106 45.2194L198.257 45.4049L197.731 45.5178L197.497 46.0825C195.314 51.4465 193.179 56.8267 191.093 62.2311L190.309 64.2557L189.921 65.272L189.533 66.2965L189.476 66.4417L189.428 66.5788L189.339 66.853C189.282 67.0305 189.226 67.216 189.169 67.3935L189.007 67.9339L188.854 68.4743C188.652 69.1922 188.474 69.9182 188.312 70.6442C187.989 72.0961 187.738 73.5641 187.544 75.0322L187.415 76.1373L187.358 76.6938L187.309 77.2504C187.253 77.9925 187.22 78.7346 187.196 79.4767C187.18 80.2188 187.18 80.9609 187.196 81.703C187.212 82.4451 187.261 83.1872 187.317 83.9293C187.439 85.4135 187.649 86.8896 187.964 88.3496C188.272 89.8015 188.676 91.2453 189.185 92.6408C189.436 93.3426 189.719 94.0282 190.018 94.7058C190.164 95.0445 190.333 95.3833 190.495 95.714L190.988 96.682C191.635 97.9807 192.33 99.2551 193.026 100.522L193.567 101.465L193.842 101.933L194.117 102.401C194.303 102.716 194.489 103.022 194.675 103.337L195.249 104.256C195.71 104.982 196.195 105.7 196.688 106.41C196.753 106.523 196.818 106.644 196.882 106.757C197.61 107.991 198.37 109.209 199.235 110.362C198.726 109.854 198.241 109.314 197.772 108.765C197.651 108.628 197.537 108.491 197.424 108.346C197.311 108.209 197.19 108.063 197.085 107.926C196.866 107.636 196.64 107.354 196.422 107.063C195.556 105.902 194.74 104.7 193.964 103.482L193.39 102.562C193.196 102.256 193.018 101.941 192.832 101.635L192.549 101.167L192.274 100.699L191.732 99.7552C191.029 98.4888 190.341 97.2144 189.695 95.9157L189.201 94.9478C189.04 94.617 188.878 94.2783 188.724 93.9395C188.425 93.2619 188.142 92.5682 187.892 91.8745C187.382 90.4791 186.986 89.0352 186.671 87.5833C186.363 86.1233 186.153 84.6472 186.024 83.163C185.959 82.4209 185.919 81.6788 185.903 80.9367C185.886 80.1946 185.886 79.4525 185.903 78.7104C185.919 77.9683 185.959 77.2262 186.016 76.4841L186.064 75.9275L186.121 75.371L186.25 74.2659C186.444 72.7898 186.687 71.3298 187.018 69.8779C187.18 69.1519 187.358 68.4259 187.56 67.7081L187.714 67.1676L187.875 66.6272C187.932 66.4497 187.989 66.2642 188.045 66.0867L188.134 65.8125L188.183 65.6754L188.239 65.5302L188.627 64.5058L189.015 63.4894L189.8 61.4648C191.886 56.0685 194.02 50.6802 196.203 45.3162L196.438 44.7435V44.7515Z" fill="black"/>
<path d="M296.357 111.435L340.09 127.358L340.891 122.663L295.985 105.289C296.138 106.281 296.438 109.177 296.357 111.427" fill="black"/>
<path d="M285.83 114.339C285.539 113.895 284.981 113.774 284.415 113.92C282.903 114.291 281.261 114.299 279.766 113.847C279.758 113.847 279.75 113.847 279.741 113.839C279.741 113.839 279.725 113.839 279.717 113.839C278.254 113.395 277.17 112.597 276.523 111.645C276.224 111.209 275.731 111.032 275.173 111.121C273.694 111.371 272.101 111.25 270.67 110.669C270.67 110.669 270.653 110.669 270.645 110.661C270.637 110.661 270.629 110.661 270.621 110.653C269.214 110.088 268.179 109.201 267.589 108.192C267.322 107.741 266.853 107.531 266.312 107.579C264.872 107.717 263.336 107.467 261.954 106.773C261.946 106.773 261.937 106.765 261.929 106.765C261.929 106.765 261.913 106.765 261.905 106.757C260.555 106.079 259.577 105.103 259.035 104.03C258.8 103.562 258.356 103.329 257.838 103.337C256.439 103.361 254.952 102.99 253.642 102.191C253.642 102.191 253.626 102.183 253.618 102.175C253.618 102.175 253.601 102.175 253.593 102.159C252.3 101.368 251.386 100.304 250.893 99.1906C250.683 98.7146 250.27 98.4565 249.777 98.4243C248.419 98.3355 246.988 97.8516 245.743 96.9481C245.743 96.9481 245.734 96.9401 245.726 96.932C245.726 96.932 245.71 96.9239 245.71 96.9159C244.473 96.0205 243.616 94.8832 243.179 93.7216C243.002 93.2457 242.613 92.9554 242.145 92.8908C241.506 92.8021 240.851 92.6085 240.22 92.3181C239.864 92.907 239.476 93.5361 239.048 94.1814C239.881 94.6977 240.754 95.0364 241.603 95.1736C242.064 95.2462 242.444 95.5527 242.622 96.0689C243.05 97.3192 243.891 98.5614 245.104 99.5293C245.104 99.5293 245.12 99.5374 245.128 99.5455C245.128 99.5455 245.136 99.5535 245.144 99.5616C246.365 100.538 247.772 101.07 249.106 101.159C249.591 101.191 249.995 101.473 250.206 101.99C250.691 103.191 251.588 104.345 252.858 105.2C252.858 105.2 252.874 105.208 252.882 105.216C252.882 105.216 252.898 105.224 252.906 105.232C254.192 106.095 255.647 106.499 257.03 106.474C257.539 106.466 257.976 106.724 258.202 107.225C258.736 108.378 259.69 109.435 261.024 110.169C261.024 110.169 261.04 110.169 261.048 110.177C261.048 110.177 261.064 110.185 261.072 110.193C262.423 110.935 263.935 111.209 265.35 111.064C265.875 111.008 266.336 111.233 266.603 111.725C267.185 112.823 268.196 113.782 269.578 114.387C269.578 114.387 269.594 114.387 269.602 114.395C269.61 114.395 269.619 114.395 269.627 114.403C271.034 115.025 272.602 115.162 274.049 114.887C274.591 114.783 275.084 114.976 275.375 115.452C276.014 116.485 277.073 117.348 278.512 117.824C278.521 117.824 278.529 117.824 278.537 117.824C278.537 117.824 278.553 117.824 278.561 117.832C280.033 118.324 281.641 118.316 283.129 117.912C283.687 117.759 284.237 117.888 284.52 118.372C286.808 122.276 291.134 122.583 292.565 122.131C293.147 120.76 293.567 119.324 293.875 117.856C292.282 118.211 288.102 117.832 285.846 114.339" fill="black"/>
<path d="M238.554 22.7549C248.661 20.8029 259.067 23.6664 260.571 27.2559C260.627 27.3768 260.627 27.4575 260.627 27.4575C261.767 27.6269 262.317 24.1987 261.541 23.5776C262.01 22.6742 261.808 21.6418 261.614 20.9158C261.404 20.093 260.708 19.6655 260.191 19.2864C260.134 17.6812 259.164 16.5116 257.66 16.5923C256.94 15.1565 255.372 13.9224 254.183 14.3821C254.102 14.4144 254.022 14.4467 253.949 14.4789C253.302 13.6723 252.316 13.1722 251.216 13.2125C250.739 13.2287 250.294 13.3497 249.89 13.5432C249.146 13.0996 248.216 12.8495 247.206 12.8818C245.637 12.9383 244.295 13.6723 243.6 14.7209C243.519 14.7209 243.446 14.7209 243.365 14.7209C241.319 14.7935 239.71 16.2132 239.775 17.8909C239.775 17.9635 239.791 18.0281 239.799 18.0926C238.627 19.2703 237.325 20.4641 238.546 22.763" fill="black"/>
<path d="M208.953 38.9761C209.665 38.9922 210.376 39.0245 211.088 39.081C216.166 39.452 221.47 40.7103 226.418 42.6946C226.507 42.7269 226.596 42.7672 226.685 42.8076C226.919 42.7592 227.154 42.6785 227.388 42.5575C227.938 42.2913 228.358 41.8961 228.585 41.4928C229.037 41.5331 229.595 41.4121 230.129 41.1137C230.234 41.0491 230.339 40.9846 230.428 40.912C230.638 41.2588 230.857 41.5976 231.083 41.9364C231.196 42.1058 231.317 42.2671 231.431 42.4365C232.102 43.3883 232.603 44.8725 233.242 46.0744C235.635 47.4699 237.899 49.0266 239.945 50.7205C240.3 51.0109 240.64 51.3094 240.988 51.6078C242.208 49.309 242.96 46.3244 243.163 46.6068L244.61 47.3973C244.796 47.5908 246.971 52.1886 244.998 55.6248C245.224 55.8829 245.54 56.254 245.879 56.6734L251.385 63.6749L246.243 78.9847C250.73 80.7673 254.636 82.8403 259.996 84.3406C269.222 73.6125 281.754 65.0059 297.779 62.0214C283.646 66.9014 270.612 74.8547 263.327 85.8732C271.494 89.4385 281.665 93.1087 291.618 94.6332C293.583 90.2774 298.119 85.2279 302.436 82.1708C296.518 81.1303 294.222 77.9118 295.386 72.4107C295.774 75.8792 298.677 80.6786 304.579 79.267C308.516 78.5894 316.214 82.6467 318.534 90.7936C309.867 87.1396 304.053 94.5606 301.466 95.8108C298.854 97.0692 292.386 94.9639 291.618 94.6332C291.246 97.287 292.499 98.9647 292.499 98.9647C275.908 95.1575 259.357 89.6402 244.674 82.6951L243.389 85.8732C243.389 85.8732 251.013 98.0129 257.174 89.1723C257.174 89.1723 259.826 90.3016 260.603 90.5436C261.444 90.8017 252.897 98.4485 241.877 89.2288C241.715 89.5676 241.57 89.866 241.481 90.0596C241.23 90.5355 240.947 91.0518 240.624 91.6164C241.335 91.9713 242.071 92.2052 242.791 92.3101C243.26 92.3746 243.648 92.665 243.826 93.1409C244.262 94.3025 245.119 95.4398 246.356 96.3351C246.356 96.3351 246.372 96.3432 246.381 96.3513C246.381 96.3513 246.397 96.3593 246.397 96.3674C247.642 97.2708 249.065 97.7629 250.431 97.8435C250.924 97.8758 251.337 98.1339 251.547 98.6098C252.04 99.723 252.954 100.788 254.248 101.578C254.248 101.578 254.264 101.578 254.272 101.594C254.272 101.594 254.288 101.602 254.288 101.61C255.598 102.409 257.086 102.78 258.484 102.756C259.002 102.748 259.446 102.982 259.681 103.45C260.223 104.514 261.193 105.498 262.551 106.176C262.551 106.176 262.567 106.176 262.575 106.184C262.575 106.184 262.592 106.184 262.6 106.192C263.974 106.878 265.51 107.136 266.958 106.999C267.491 106.95 267.96 107.16 268.235 107.612C268.834 108.62 269.86 109.515 271.267 110.072C271.275 110.072 271.283 110.072 271.291 110.08C271.3 110.08 271.308 110.08 271.316 110.088C272.755 110.661 274.34 110.79 275.819 110.532C276.369 110.435 276.87 110.612 277.17 111.056C277.816 112.008 278.9 112.806 280.363 113.25C280.371 113.25 280.379 113.25 280.388 113.25C280.396 113.25 280.404 113.25 280.412 113.258C281.908 113.71 283.549 113.71 285.061 113.331C285.627 113.194 286.193 113.307 286.476 113.75C288.497 116.888 292.079 117.509 293.939 117.348C295.467 109.08 293.122 100.239 292.507 98.9647C300.059 101.667 304.11 100.481 306.633 96.9966C309.438 93.1248 313.392 87.4139 318.494 95.0042C317.572 96.198 315.995 97.2789 317.006 98.0533C319.626 100.07 322.229 104.571 328.746 102.288C329.336 102.078 330.549 102.611 331.414 101.844C332.465 100.901 333.888 99.5294 334.05 97.1337C334.05 97.1337 332.643 97.2063 329.555 96.8675C325.795 96.4561 323.701 95.3107 323.701 95.3107C321.526 73.4512 310.206 79.2347 304.433 70.2973C302.218 66.8692 302.202 59.7063 309.22 57.3752C306.115 59.7628 305.015 66.8046 309.729 71.6363C315.769 77.8151 323.749 72.7414 327.452 94.4154C327.452 94.4154 329.409 95.343 332.651 95.4479C336.346 95.5608 337.745 94.98 337.745 94.98C337.527 69.4988 336.839 54.8101 334.931 51.2368C329.441 54.06 324.679 51.6724 324.679 51.6724C324.679 51.6724 329.094 51.3497 331.455 49.9139C326.345 43.0657 337.47 48.3894 336.613 37.7823C328.738 37.5 325.617 43.2028 325.318 45.5582C321.251 44.3079 330.201 39.7908 326.199 36.2658C318.664 38.4357 318.219 42.4527 318.219 42.4527C318.219 42.5333 318.203 42.6059 318.203 42.6866C318.203 42.6866 314.33 39.2826 310.594 40.428C307.95 41.2346 308.419 38.96 308.419 37.621C308.419 37.5161 308.023 37.6613 307.514 38.0727C307.287 38.2743 307.069 38.5002 306.843 38.726C306.018 39.694 305.234 41.2911 305.533 43.59C305.533 43.59 303.107 41.3718 304.902 38.2824C298.879 35.9029 290.688 42.2913 289.249 49.6477C289.249 49.6477 288.4 45.1387 291.101 41.6541C285.643 41.6622 278.366 47.7118 279.611 54.1406C279.611 54.1406 278.035 52.8823 278.213 49.7365C274.251 49.6397 269.594 56.0281 270.693 60.2306C270.693 60.2306 270.232 59.7547 269.998 57.714C269.957 57.3591 269.965 56.9799 270.014 56.5686C265.187 56.1733 258.929 64.4493 262.26 69.773C262.26 69.773 260.975 69.5714 260.449 66.5546C260.223 65.2882 260.498 63.6427 261.104 61.8923C257.862 62.1262 255.638 67.3289 252.8 72.7253L252.21 70.9265C252.21 70.9265 253.366 65.3527 257.385 63.0216C257.385 63.0216 255.121 62.1343 253.859 60.3516C251.79 57.4317 250.261 55.7781 249.13 54.9311C249.121 54.8666 249.113 54.8021 249.105 54.7375C254.935 53.697 260.215 50.7609 264.201 46.276C268.874 41.0088 271.211 34.2331 270.782 27.2074C270.354 20.1818 267.208 13.7449 261.929 9.0826C256.649 4.42031 249.857 2.0811 242.815 2.50861C228.277 3.38783 217.176 15.9066 218.058 30.4097C218.09 30.9905 218.155 31.5713 218.227 32.144C217.815 31.9827 217.281 31.9181 216.683 31.9827C216.683 31.9827 216.683 31.9827 216.675 31.9827C216.675 31.9827 216.675 31.9827 216.667 31.9827C215.971 32.0553 215.09 33.362 214.621 33.6604C214.33 33.4911 214.177 32.9667 213.724 32.9264C212.883 32.87 211.29 33.967 211.355 34.3622C211.363 34.7897 213.902 33.6443 212.794 34.9026C212.624 35.0962 214.443 34.5558 214.637 34.4429C215.058 34.6849 215.68 34.8139 216.4 34.7575C216.4 34.7575 216.4 34.7575 216.408 34.7575C216.408 34.7575 216.408 34.7575 216.416 34.7575C217.136 34.701 217.807 34.4671 218.284 34.1444C218.373 34.1928 218.478 34.2331 218.591 34.2654C218.672 34.6607 218.769 35.064 218.874 35.4512C218.526 35.4915 218.082 35.5883 217.483 35.798C214.476 35.5721 211.436 37.0725 208.945 38.968M228.811 38.7825C228.31 39.089 227.946 39.5004 227.744 39.9118C227.291 39.8715 226.749 39.9924 226.232 40.2748C226.07 40.3554 225.933 40.4522 225.795 40.5571C225.496 39.6859 225.076 38.968 224.97 38.847C224.801 38.6615 224.623 38.4841 224.332 38.1775C224.34 38.1775 224.348 38.1775 224.356 38.1775C224.793 38.1291 225.003 38.0727 225.229 38.1049C226.078 38.2179 226.927 38.3227 227.784 38.2582C228.455 38.2017 228.843 38.3308 229.126 38.6131C229.029 38.6615 228.932 38.7099 228.835 38.7664M221.308 35.8787C221.138 35.314 220.984 34.7413 220.855 34.1686C221.267 34.0315 221.647 33.8379 221.938 33.612C222.375 33.8218 223.014 33.8863 223.725 33.7411C223.725 33.7411 223.725 33.7411 223.733 33.7411C223.733 33.7411 223.733 33.7411 223.742 33.7411C224.453 33.5959 225.092 33.2733 225.536 32.878C225.981 33.0635 226.62 33.0958 227.323 32.9103C227.323 32.9103 227.323 32.9103 227.331 32.9103C227.331 32.9103 227.331 32.9103 227.339 32.9103C228.043 32.7248 228.665 32.3537 229.094 31.9181C229.547 32.0875 230.186 32.0875 230.881 31.8536C230.881 31.8536 230.881 31.8536 230.889 31.8536C230.889 31.8536 230.889 31.8536 230.897 31.8536C231.22 31.7487 231.528 31.5955 231.803 31.418C229.692 33.0555 224.922 35.919 221.3 35.8867M242.968 4.70263C249.421 4.30738 255.638 6.44494 260.481 10.72C265.389 15.0597 268.292 21.069 268.615 27.6108C268.906 33.4346 267.055 39.2181 263.416 43.7836C259.778 48.3571 254.765 51.3739 249.17 52.4709C249.097 51.9224 248.976 51.3336 248.758 50.7125C248.24 48.9944 246.405 46.8084 245.944 46.3648C245.928 46.3486 245.928 46.3325 245.92 46.3244C245.54 46.0179 245.152 45.7114 244.723 45.421C244.472 45.2516 244.157 45.1226 243.963 44.9209C243.777 44.7273 243.543 44.4127 243.623 44.2353C243.947 43.4851 244.763 42.2671 245.742 41.3395C246.704 42.3155 249.299 43.4851 250.617 42.9366C251.741 42.4768 252.242 41.5492 252.501 40.7507C252.671 40.2344 253.01 40.3474 253.083 40.3151L253.148 40.299C253.762 40.2183 253.94 39.7263 253.965 39.5569C253.965 39.5085 253.981 39.4601 253.989 39.4197C254.037 39.3955 254.086 39.3713 254.126 39.3633C254.652 39.2342 254.611 38.6212 254.611 38.6212C254.684 38.113 254.66 37.871 254.862 37.6613C255.42 37.7097 256.018 37.8549 256.301 37.8307C257.045 37.7662 257.328 37.3225 257.449 36.5078C257.554 35.8222 257.943 32.4263 258.185 31.8617C258.266 31.6761 258.444 31.5632 258.606 31.4503C258.735 31.3616 258.856 31.2728 258.986 31.1841C259.309 30.9421 259.325 30.4501 259.43 30.1113L259.552 29.7161C259.649 29.4015 259.689 29.2724 259.859 28.6352C259.56 28.3045 259.123 27.8527 258.832 27.514C258.662 28.4819 258.703 28.9014 258.606 29.1837L258.46 29.5789C258.436 29.6515 258.379 29.7645 258.193 29.8935C258.072 29.9742 257.951 30.0468 257.829 30.1274C257.401 30.3936 257.134 30.7324 257.053 31.2486C256.673 33.5395 256.503 35.7173 256.317 36.2497C256.196 36.5966 255.897 36.653 255.622 36.653C255.363 36.653 255.177 36.4433 254.636 36.3707C254.45 36.3465 254.078 36.4272 253.859 36.9111C253.682 37.2903 253.593 37.5403 253.536 38.0888C253.512 38.3389 253.116 38.3389 253.01 38.4034C252.873 38.4841 252.922 38.4921 252.849 38.6615C252.768 38.839 252.8 39.2342 252.388 39.2504C251.652 39.2826 251.256 40.8152 251.232 40.9039C250.334 43.5577 245.984 39.8957 245.313 38.9761C244.294 37.5806 243.979 37.1612 243.785 35.3463C243.785 35.2979 243.583 35.5237 243.486 35.8545C243.001 36.8385 243.3 38.8793 243.85 39.6375C243.995 39.8392 239.726 45.7195 239.088 45.8163C234.689 42.9044 234.204 40.9685 234.107 38.2017C234.487 38.1453 234.891 37.984 235.271 37.6936C235.748 37.3225 236.064 36.8385 236.185 36.3626C236.63 36.3546 237.147 36.1529 237.584 35.7496C238.02 35.3544 238.303 34.83 238.384 34.338C238.716 34.3138 239.079 34.1767 239.411 33.9266C243.389 34.58 244.278 31.7729 244.141 31.6278C242.871 29.7402 243.672 28.3609 244.634 27.6672C244.893 28.0947 245.418 28.4577 246.089 28.6271C246.696 28.7804 247.294 28.74 247.747 28.5545C248.159 28.8449 248.774 28.8368 249.041 28.8368C249.501 28.8368 249.914 28.7158 250.221 28.5222C250.528 28.7884 251.013 28.9578 251.555 28.9578C252.25 28.9578 252.719 28.8449 252.986 28.5787C253.18 28.6271 253.382 28.6674 253.609 28.6674C254.207 28.6674 254.733 28.4577 255.032 28.1512C255.266 28.2319 255.525 28.2883 255.8 28.3206C256.819 28.4255 258.452 27.5624 258.371 27.1913C258.42 26.9897 252.315 22.3274 238.457 23.8922C237.875 25.4571 235.562 26.062 235.74 26.667C235.764 26.7477 235.773 26.8203 235.789 26.8929C235.142 26.9977 234.35 27.2155 233.945 27.393C233.945 27.393 233.945 27.393 233.937 27.393C233.937 27.393 233.937 27.393 233.929 27.393C233.282 27.6834 232.724 28.127 232.352 28.6029C231.892 28.4577 231.277 28.5061 230.614 28.7481C230.614 28.7481 230.614 28.7481 230.606 28.7481C230.606 28.7481 230.606 28.7481 230.598 28.7481C229.935 28.9982 229.361 29.3934 228.957 29.837C228.504 29.6757 227.881 29.6838 227.21 29.8854C227.21 29.8854 227.21 29.8854 227.202 29.8854C227.202 29.8854 227.202 29.8854 227.194 29.8854C226.515 30.0871 225.916 30.442 225.496 30.8453C225.051 30.6598 224.429 30.6356 223.75 30.7969C223.75 30.7969 223.75 30.7969 223.742 30.7969C223.742 30.7969 223.742 30.7969 223.733 30.7969C223.046 30.9583 222.432 31.2648 221.995 31.6358C221.591 31.4503 221.033 31.3938 220.41 31.4745C220.37 31.0792 220.33 30.6759 220.305 30.2807C219.497 16.9956 229.668 5.52539 242.993 4.7107" fill="black"/>
</g>
<defs>
<clipPath id="clip0_4007_2449">
<rect width="431.653" height="226" fill="white" transform="translate(0.173584)"/>
</clipPath>
</defs>
</svg>
