<svg width="69" height="32" viewBox="0 0 69 32" fill="none" xmlns="http://www.w3.org/2000/svg">
<path d="M48.8005 9.27294C49.0428 9.27294 49.1543 9.21907 49.1543 9.05747C49.1543 8.86893 49.0466 8.81507 48.7735 8.81507C47.6081 8.81507 45.9312 8.94974 45.0081 8.94974H43.7081C43.0312 8.94974 42.8696 9.32681 42.5427 10.358L37.4234 26.0719C37.2081 26.7491 36.9081 26.7491 36.6927 26.0719L31.5195 9.97707C31.3042 9.21907 30.9234 8.94589 30.0311 8.94589H29.0772C28.1849 8.94589 26.4772 8.81122 25.3118 8.81122C25.0426 8.81122 24.958 8.86509 24.931 9.05362C24.931 9.21523 25.0387 9.26909 25.2849 9.26909C27.0734 9.26909 28.1003 9.70388 28.0734 12.0317V27.5302C28.0734 29.8619 27.0695 30.2929 25.2849 30.2929C25.0426 30.2929 24.931 30.3467 24.931 30.5083C24.931 30.6969 25.0387 30.7507 25.3118 30.7507C26.2041 30.7507 27.3695 30.6699 28.2926 30.643C29.3772 30.6699 30.7849 30.7507 31.8426 30.7507C32.1657 30.7507 32.2772 30.6969 32.2772 30.5083C32.2772 30.3467 32.1696 30.2929 31.8426 30.2929C29.758 30.2929 28.5388 29.8581 28.5388 27.5302V12.0356C28.5388 11.3315 28.7003 11.3045 28.9157 11.9817L35.0119 30.8161C35.0657 30.9508 35.2003 31.0585 35.335 31.0585H36.1465C36.2811 31.0585 36.4157 30.9508 36.4696 30.8161L42.5927 11.7662C42.7812 11.116 42.9466 11.116 42.9466 11.8201V27.5379C42.9466 29.8696 41.7273 30.3006 39.6158 30.3006C39.3158 30.3006 39.2081 30.3544 39.2081 30.516C39.2081 30.7046 39.3158 30.7584 39.6427 30.7584C41.0235 30.7584 43.0273 30.6238 44.112 30.6238H45.0043C45.8966 30.6238 47.6043 30.7584 48.7697 30.7584C49.0389 30.7584 49.1235 30.7046 49.1235 30.516C49.1235 30.3544 49.0428 30.3006 48.7697 30.3006C47.0081 30.3006 45.9812 29.8658 45.9812 27.5379L46.0081 12.0394C46.0081 9.70388 47.012 9.27294 48.8005 9.27294Z" fill="black"/>
<path d="M68.366 23.6325C68.2314 23.6325 68.1237 23.7672 68.0121 24.0673C66.1698 29.3771 65.0044 30.2197 62.9198 30.2197H60.8082C59.5621 30.2197 59.2928 29.758 59.2928 28.4844V12.0356C59.2928 9.70388 60.3236 9.27294 62.0813 9.27294C62.3236 9.27294 62.4352 9.21907 62.4352 9.05747C62.4352 8.86893 62.3275 8.81506 62.0813 8.81506C60.9159 8.81506 59.2082 8.94973 58.3159 8.94973H57.2313C56.339 8.94973 54.6313 8.81506 53.4659 8.81506C53.1966 8.81506 53.112 8.86893 53.0851 9.05747C53.0851 9.21907 53.1928 9.27294 53.4389 9.27294C55.2274 9.27294 56.2543 9.70773 56.2274 12.0356V27.5341C56.2274 29.8658 55.2236 30.2967 53.4389 30.2967C53.1966 30.2967 53.0851 30.3506 53.0851 30.5122C53.0851 30.7007 53.1928 30.7546 53.4659 30.7546C54.6313 30.7546 56.312 30.6199 57.2313 30.6199H64.0583C65.4929 30.6199 66.1698 30.7546 66.8737 30.7546C67.3621 30.7546 67.4698 30.4852 67.4698 30.0235C67.4698 27.7726 67.9852 25.9065 68.5006 24.0634C68.5814 23.798 68.5275 23.6325 68.366 23.6325Z" fill="black"/>
<path d="M15.6079 27.7187C15.6079 27.711 15.604 27.6956 15.5963 27.6687C15.6002 27.6879 15.604 27.7033 15.6079 27.7187Z" fill="black"/>
<path d="M14.5616 24.3982L15.5963 27.6726L14.5924 24.4751C14.5847 24.4482 14.5732 24.4213 14.5616 24.3982Z" fill="black"/>
<path d="M23.5271 11.7701C23.5271 5.27903 18.2501 0 11.7616 0C5.27697 0.00384769 0 5.28288 0 11.7701C0 16.5066 2.81541 20.5967 6.85775 22.4628L5.14235 27.6995C4.41157 29.8927 3.2731 30.3005 1.73078 30.3005C1.5154 30.3005 1.43078 30.3544 1.43078 30.516C1.43078 30.7045 1.51155 30.7584 1.75771 30.7584C2.56925 30.7584 3.54618 30.6238 4.41157 30.6238C5.55005 30.6238 6.68852 30.7584 7.68852 30.7584C7.98853 30.7584 8.09622 30.6776 8.09622 30.516C8.09622 30.3544 7.98853 30.3005 7.71545 30.3005C5.76543 30.3005 4.87312 29.8927 5.60389 27.6995L7.24621 22.636C8.63853 23.217 10.1655 23.5402 11.7655 23.5402C12.1463 23.5402 12.5232 23.5209 12.8963 23.4863L12.7539 22.9168C12.427 22.9438 12.1001 22.963 11.7655 22.963C10.227 22.963 8.76161 22.6513 7.42314 22.0857L10.3155 13.1745C10.5309 12.5242 10.8309 12.5242 11.0193 13.1745L14.5617 24.3982C14.5732 24.4251 14.5847 24.4482 14.5924 24.4751L15.5963 27.6726C15.604 27.6995 15.6078 27.711 15.6078 27.7226C16.254 29.9004 15.3347 30.3044 13.4001 30.3044C13.104 30.3044 12.9924 30.3583 12.9924 30.5199C12.9924 30.7084 13.1001 30.7623 13.4001 30.7623C14.7001 30.7623 16.5963 30.6276 17.6001 30.6276H18.954C19.6309 30.6276 20.9309 30.7623 21.8271 30.7623C22.0156 30.7623 22.0963 30.6815 22.0963 30.5199C22.0963 30.3583 22.0156 30.3044 21.8271 30.3044C20.4732 30.3044 19.4694 29.8965 18.7386 27.7034L16.9617 22.3243C20.8463 20.4004 23.5271 16.395 23.5271 11.7701ZM16.7771 21.7664L12.4809 8.75734C12.427 8.62267 12.2924 8.51493 12.127 8.51493H11.6655C11.5039 8.51493 11.3693 8.62267 11.3386 8.75734L7.03083 21.9126C3.2231 20.1234 0.576928 16.2526 0.576928 11.7701C0.576928 5.60223 5.5962 0.581001 11.7616 0.581001C17.9309 0.581001 22.9463 5.60223 22.9463 11.7701C22.9502 16.1372 20.4348 19.9233 16.7771 21.7664Z" fill="black"/>
</svg>
