<svg width="41" height="41" viewBox="0 0 41 41" fill="none" xmlns="http://www.w3.org/2000/svg">
<path fill-rule="evenodd" clip-rule="evenodd" d="M20.7736 40.4528C9.60285 40.4528 0.547173 31.3972 0.547173 20.2264C0.547173 9.05568 9.60285 0 20.7736 0C31.9443 0 41 9.05568 41 20.2264C41 31.3972 31.9443 40.4528 20.7736 40.4528ZM21.6482 15.1791C19.8367 15.9326 16.2162 17.4921 10.7867 19.8577C9.90503 20.2083 9.44317 20.5513 9.40113 20.8866C9.33007 21.4534 10.0399 21.6766 11.0064 21.9806C11.1379 22.0219 11.2741 22.0647 11.4138 22.1101C12.3647 22.4193 13.6439 22.7809 14.3089 22.7953C14.9121 22.8083 15.5854 22.5596 16.3287 22.0492C21.4016 18.6248 24.0203 16.894 24.1847 16.8567C24.3007 16.8303 24.4614 16.7972 24.5703 16.894C24.6792 16.9908 24.6685 17.1741 24.657 17.2233C24.5867 17.5231 21.8005 20.1134 20.3586 21.4539C19.9091 21.8718 19.5902 22.1682 19.5251 22.2359C19.3791 22.3876 19.2302 22.531 19.0872 22.6689C18.2038 23.5205 17.5413 24.1592 19.1239 25.2021C19.8845 25.7033 20.4931 26.1178 21.1002 26.5312C21.7633 26.9828 22.4246 27.4332 23.2803 27.9941C23.4983 28.137 23.7065 28.2854 23.9093 28.43C24.681 28.9801 25.3743 29.4744 26.2307 29.3955C26.7284 29.3497 27.2425 28.8818 27.5036 27.4861C28.1206 24.1876 29.3334 17.0409 29.6137 14.0959C29.6382 13.8378 29.6073 13.5076 29.5825 13.3627C29.5577 13.2177 29.5059 13.0112 29.3174 12.8583C29.0943 12.6772 28.7498 12.639 28.5957 12.6416C27.8952 12.6541 26.8205 13.0278 21.6482 15.1791Z" fill="#919268"/>
</svg>
